<svg width="19" height="19" viewBox="0 0 19 19" fill="none" xmlns="http://www.w3.org/2000/svg">
<path fill-rule="evenodd" clip-rule="evenodd" d="M9.5 0C4.262 0 0 4.262 0 9.5C0 14.739 4.262 19 9.5 19C14.738 19 19 14.739 19 9.5C19 4.262 14.738 0 9.5 0Z" fill="#15AB3D"/>
<path fill-rule="evenodd" clip-rule="evenodd" d="M14.7392 7.46521L9.25957 12.7483C9.08514 12.9165 8.8585 13 8.63067 13C8.40166 13 8.17502 12.9165 8.00059 12.7483L5.26075 10.1068C4.91308 9.77156 4.91308 9.22815 5.26075 8.89295C5.60842 8.55775 6.17087 8.55775 6.51854 8.89295L8.63067 10.9282L13.4803 6.2514C13.8279 5.9162 14.3916 5.9162 14.7392 6.2514C15.0869 6.5866 15.0869 7.13001 14.7392 7.46521Z" fill="white"/>
</svg>
