
<svg width="19" height="19" viewBox="0 0 19 19" fill="none" xmlns="http://www.w3.org/2000/svg">
<path fill-rule="evenodd" clip-rule="evenodd" d="M9.5 0C4.262 0 0 4.262 0 9.5C0 14.739 4.262 19 9.5 19C14.738 19 19 14.739 19 9.5C19 4.262 14.738 0 9.5 0Z" fill="#FF2B2B"/>
<path fill-rule="evenodd" clip-rule="evenodd" d="M12.7507 12.7504C12.585 12.916 12.3672 13 12.1493 13C11.9315 13 11.7136 12.916 11.5468 12.7504L9.49773 10.7002L7.45429 12.7447C7.12185 13.0771 6.58291 13.0771 6.25047 12.7447C5.91916 12.4123 5.91916 11.8745 6.25047 11.5421L8.29391 9.49759L6.24933 7.45196C5.91689 7.11953 5.91689 6.58175 6.24933 6.24932C6.58177 5.91689 7.11958 5.91689 7.45202 6.24932L9.49773 8.29381L11.5412 6.25046C11.8736 5.91916 12.4114 5.91916 12.7439 6.25046C13.0763 6.58288 13.0763 7.1218 12.7439 7.45423L10.7016 9.49759L12.7507 11.5466C13.0831 11.879 13.0831 12.418 12.7507 12.7504Z" fill="white"/>
</svg>
