<svg width="1440" height="1024" viewBox="0 0 1440 1024" fill="none" xmlns="http://www.w3.org/2000/svg">
<g clip-path="url(#clip0_6_1170)">
<rect width="1440" height="1024" rx="16" fill="#111111"/>
<rect x="-43" y="144" width="232.28" height="232.28" rx="16" fill="#222222"/>
<path d="M32.9686 303.591L24.9307 205.357L120.924 205.554L112.425 303.591L73.2898 314.923L32.9686 303.591Z" fill="#E34F26"/>
<path d="M73.2905 305.435V214.712L112.821 214.844L105.772 296.013L73.2905 305.435Z" fill="#EF652A"/>
<path d="M101.951 237.377L103.07 225.385H42.2593L45.6191 262.15H87.5876L85.9418 277.83L72.5011 281.453L58.8631 277.5L58.1385 268.144H46.0804L47.7278 287.251L72.5004 294.169L97.4703 287.251L100.83 249.961H56.7543L55.5025 237.377H101.951Z" fill="white"/>
<rect x="215.575" y="144" width="232.28" height="232.28" rx="16" fill="#222222"/>
<path d="M291.544 303.591L283.506 205.357L379.501 205.554L371.002 303.591L331.866 314.923L291.544 303.591Z" fill="#1B73BA"/>
<path d="M331.866 305.435V214.712L371.398 214.844L364.348 296.014L331.866 305.435Z" fill="#1C88C7"/>
<path d="M361.581 226.309H300.769L302.416 238.167H331.273L302.877 250.356L304.524 261.82H346.362L344.846 277.83L330.68 280.597L317.833 277.303L316.845 268.211H305.051L306.632 287.12L331.932 294.17L356.179 286.461L359.275 249.499H333.645L361.58 237.904L361.581 226.309Z" fill="white"/>
<rect x="474.151" y="144" width="232.28" height="232.28" rx="16" fill="#222222"/>
<path d="M642.713 268.273C637.602 268.302 633.177 269.529 629.465 271.357C628.095 268.644 626.724 266.274 626.496 264.504C626.239 262.449 625.925 261.192 626.239 258.737C626.553 256.281 627.981 252.798 627.981 252.512C627.952 252.255 627.666 250.999 624.726 250.971C621.785 250.942 619.244 251.542 618.958 252.312C618.673 253.083 618.102 254.854 617.731 256.681C617.217 259.365 611.849 268.872 608.794 273.869C607.795 271.927 606.938 270.214 606.767 268.844C606.51 266.788 606.196 265.532 606.51 263.076C606.824 260.621 608.251 257.138 608.251 256.852C608.223 256.595 607.937 255.339 604.997 255.31C602.056 255.282 599.515 255.881 599.23 256.652C598.944 257.423 598.63 259.251 598.002 261.021C597.402 262.791 590.264 278.666 588.408 282.805C587.466 284.918 586.638 286.603 586.038 287.745C585.439 288.887 586.01 287.831 585.953 287.945C585.439 288.915 585.153 289.458 585.153 289.458V289.487C584.754 290.201 584.325 290.886 584.125 290.886C583.982 290.886 583.697 288.973 584.182 286.346C585.239 280.835 587.808 272.242 587.78 271.928C587.78 271.785 588.265 270.271 586.124 269.501C584.04 268.73 583.298 270.015 583.126 270.015C582.955 270.015 582.812 270.472 582.812 270.472C582.812 270.472 585.125 260.793 578.386 260.793C574.161 260.793 568.336 265.39 565.453 269.587C563.625 270.586 559.742 272.699 555.631 274.954C554.061 275.811 552.433 276.725 550.891 277.553L550.578 277.209C542.412 268.501 527.308 262.334 527.936 250.628C528.165 246.374 529.649 235.153 556.945 221.563C579.301 210.428 597.202 213.483 600.314 220.278C604.74 229.985 590.749 248.03 567.509 250.628C558.658 251.627 554.004 248.201 552.833 246.916C551.606 245.574 551.434 245.517 550.978 245.774C550.235 246.174 550.692 247.373 550.978 248.087C551.663 249.886 554.518 253.083 559.372 254.682C563.626 256.081 574.019 256.852 586.581 251.998C600.657 246.545 611.649 231.413 608.423 218.765C605.14 205.888 583.783 201.662 563.597 208.829C551.577 213.111 538.557 219.792 529.192 228.558C518.057 238.95 516.287 248.03 517.03 251.799C519.628 265.246 538.158 274.012 545.581 280.493C545.21 280.692 544.867 280.892 544.553 281.064C540.841 282.891 526.709 290.286 523.168 298.109C519.171 306.96 523.796 313.327 526.88 314.184C536.416 316.839 546.181 312.071 551.463 304.219C556.716 296.367 556.088 286.175 553.661 281.521L553.575 281.349L556.487 279.636C558.372 278.523 560.228 277.495 561.855 276.61C560.942 279.093 560.285 282.034 559.942 286.317C559.543 291.342 561.598 297.852 564.311 300.421C565.51 301.535 566.938 301.564 567.823 301.564C570.963 301.564 572.391 298.965 573.961 295.853C575.903 292.056 577.616 287.659 577.616 287.659C577.616 287.659 575.474 299.565 581.327 299.565C583.469 299.565 585.61 296.795 586.581 295.368V295.396C586.581 295.396 586.638 295.311 586.752 295.111C586.872 294.934 586.986 294.753 587.095 294.569V294.512C587.951 293.027 589.864 289.629 592.719 284.005C596.402 276.753 599.943 267.673 599.943 267.673C599.943 267.673 600.286 269.9 601.342 273.555C601.97 275.725 603.34 278.094 604.397 280.407C603.54 281.606 603.026 282.292 603.026 282.292L603.055 282.32C602.37 283.234 601.599 284.205 600.8 285.176C597.887 288.659 594.404 292.628 593.947 293.77C593.405 295.111 593.519 296.111 594.575 296.91C595.346 297.482 596.717 297.595 598.173 297.482C600.8 297.31 602.627 296.654 603.54 296.254C604.968 295.74 606.596 294.969 608.166 293.827C611.021 291.714 612.763 288.716 612.591 284.719C612.506 282.521 611.792 280.351 610.907 278.295C611.164 277.924 611.421 277.552 611.678 277.153C616.189 270.557 619.672 263.305 619.672 263.305C619.672 263.305 620.015 265.532 621.071 269.187C621.613 271.043 622.699 273.07 623.669 275.069C619.444 278.524 616.788 282.521 615.875 285.148C614.19 290.001 615.504 292.2 617.988 292.714C619.101 292.942 620.7 292.428 621.899 291.914C623.383 291.429 625.182 290.601 626.839 289.373C629.694 287.26 632.435 284.32 632.292 280.351C632.206 278.524 631.721 276.725 631.064 275.012C634.662 273.527 639.315 272.671 645.226 273.384C657.931 274.869 660.444 282.806 659.958 286.118C659.473 289.431 656.818 291.258 655.932 291.829C655.047 292.371 654.762 292.571 654.847 292.971C654.962 293.571 655.361 293.542 656.132 293.428C657.189 293.256 662.813 290.715 663.042 284.606C663.384 276.753 655.932 268.187 642.713 268.273ZM544.724 301.307C540.527 305.904 534.617 307.645 532.105 306.161C529.392 304.59 530.448 297.824 535.617 292.941C538.757 289.972 542.84 287.231 545.524 285.546C546.123 285.175 547.037 284.633 548.122 283.976C548.293 283.862 548.408 283.805 548.408 283.805C548.607 283.691 548.836 283.548 549.064 283.405C550.977 290.372 549.15 296.482 544.724 301.307ZM575.417 280.436C573.961 284.005 570.878 293.17 569.022 292.656C567.423 292.227 566.452 285.289 568.707 278.437C569.849 274.982 572.276 270.871 573.704 269.272C576.017 266.702 578.529 265.846 579.158 266.902C579.9 268.273 576.331 278.209 575.417 280.436ZM600.742 292.542C600.114 292.856 599.543 293.084 599.286 292.913C599.086 292.799 599.543 292.371 599.543 292.371C599.543 292.371 602.712 288.973 603.968 287.403C604.682 286.489 605.539 285.433 606.452 284.233V284.576C606.453 288.687 602.513 291.428 600.742 292.542ZM620.271 288.087C619.815 287.745 619.872 286.688 621.413 283.377C622.013 282.063 623.383 279.865 625.753 277.78C626.039 278.637 626.21 279.465 626.182 280.236C626.153 285.375 622.499 287.288 620.271 288.087Z" fill="#CF649A"/>
<rect x="732.727" y="144" width="232.28" height="232.28" rx="16" fill="#222222"/>
<path d="M794.083 205.357H903.649V314.923H794.083V205.357Z" fill="#F0DB4F"/>
<path d="M894.682 288.792C893.88 283.793 890.621 279.595 880.966 275.679C877.612 274.138 873.873 273.034 872.759 270.493C872.363 269.014 872.311 268.181 872.561 267.285C873.28 264.379 876.748 263.473 879.497 264.306C881.268 264.9 882.945 266.264 883.955 268.441C888.683 265.379 888.673 265.4 891.975 263.296C890.766 261.421 890.121 260.557 889.329 259.755C886.486 256.578 882.611 254.943 876.415 255.068C875.342 255.204 874.259 255.349 873.186 255.485C870.093 256.266 867.145 257.891 865.416 260.067C860.23 265.952 861.709 276.252 868.02 280.491C874.238 285.157 883.372 286.219 884.538 290.583C885.673 295.926 880.612 297.655 875.581 297.041C871.874 296.27 869.812 294.385 867.583 290.958C863.479 293.333 863.479 293.333 859.261 295.76C860.261 297.947 861.313 298.936 862.99 300.832C870.926 308.883 890.787 308.487 894.349 296.301C894.495 295.885 895.453 293.093 894.682 288.792ZM853.647 255.714H843.399C843.399 264.567 843.357 273.357 843.357 282.21C843.357 287.844 843.649 293.01 842.732 294.593C841.233 297.707 837.348 297.322 835.577 296.718C833.776 295.832 832.859 294.572 831.797 292.791C831.505 292.281 831.286 291.885 831.213 291.854C828.433 293.552 825.662 295.26 822.881 296.957C824.267 299.801 826.308 302.269 828.922 303.873C832.828 306.216 838.077 306.935 843.566 305.675C847.138 304.633 850.221 302.477 851.835 299.196C854.168 294.895 853.668 289.688 853.647 283.928C853.699 274.534 853.647 265.139 853.647 255.714Z" fill="#323330"/>
<rect x="991.303" y="144" width="232.28" height="232.28" rx="16" fill="#222222"/>
<g clip-path="url(#clip1_6_1170)">
<path d="M1052.66 205.357H1162.23V314.923H1052.66" fill="#3178C6"/>
<path d="M1102.52 266.132H1116.22V257.358H1077.91V266.132H1091.61V305.293H1102.52V266.132ZM1120.5 303.153C1124.35 305.124 1129.55 305.828 1134.19 305.828C1138.19 305.828 1143.38 305.308 1147.46 302.747C1149.19 301.612 1150.67 300.179 1151.53 298.253C1152.38 296.327 1153.04 294.187 1153.04 291.405C1153.03 282.599 1146.78 279.68 1140.61 276.853C1137.81 275.58 1131.52 273.523 1131.52 269.556C1131.52 266.359 1135.11 264.734 1139.69 264.719C1143.26 264.719 1148.06 265.881 1151.03 268.066V258.009C1147.02 256.466 1142.81 256.177 1139.05 256.168C1128.51 256.168 1120.29 260.517 1120.22 270.463C1120.32 277.977 1124.78 281.257 1131.35 284.373C1134.92 285.991 1141.53 288.062 1141.57 292.548C1141.42 296.735 1136.31 297.373 1133.36 297.405C1128.74 297.405 1123.86 295.653 1120.5 292.881V303.153Z" fill="white"/>
</g>
<rect x="1249.88" y="144" width="232.28" height="232.28" rx="16" fill="#222222"/>
<path d="M1366.21 271.062C1372.28 271.062 1377.2 266.141 1377.2 260.07C1377.2 253.999 1372.28 249.077 1366.21 249.077C1360.13 249.077 1355.21 253.999 1355.21 260.07C1355.21 266.141 1360.13 271.062 1366.21 271.062Z" fill="#00D8FF"/>
<path fill-rule="evenodd" clip-rule="evenodd" d="M1366.21 240.35C1351.52 240.35 1337.78 242.488 1327.75 245.984C1327.75 245.984 1327.75 245.984 1327.75 245.984C1321.81 248.051 1317.23 250.593 1314.19 253.197C1311.09 255.852 1309.92 258.259 1309.92 260.066C1309.92 261.949 1311.19 264.537 1314.51 267.382C1317.76 270.164 1322.62 272.874 1328.87 275.008C1338.72 278.374 1352 280.004 1366.21 280.004C1380.03 280.004 1393.04 278.271 1402.8 275.037L1402.8 275.037C1409.28 272.892 1414.34 270.192 1417.72 267.409C1421.18 264.56 1422.49 261.971 1422.49 260.066C1422.49 258.271 1421.28 255.844 1418.05 253.15C1414.89 250.517 1410.18 247.955 1404.15 245.882C1404.15 245.882 1404.15 245.882 1404.15 245.881C1394.15 242.44 1380.74 240.35 1366.21 240.35ZM1326.02 241.018C1336.73 237.285 1351.08 235.092 1366.21 235.092C1381.18 235.092 1395.19 237.238 1405.86 240.909L1405.86 240.91C1412.29 243.123 1417.63 245.954 1421.42 249.113C1425.13 252.211 1427.75 255.976 1427.75 260.066C1427.75 264.293 1425 268.223 1421.06 271.468C1417.04 274.777 1411.35 277.745 1404.46 280.028C1394 283.492 1380.4 285.262 1366.21 285.262C1351.69 285.262 1337.77 283.608 1327.17 279.984L1327.17 279.984C1320.48 277.697 1314.97 274.7 1311.09 271.376C1307.29 268.115 1304.66 264.199 1304.66 260.066C1304.66 256.036 1307.15 252.3 1310.77 249.201C1314.45 246.052 1319.67 243.23 1326.02 241.018L1326.02 241.018Z" fill="#00D8FF"/>
<path fill-rule="evenodd" clip-rule="evenodd" d="M1346.66 211.972C1342.46 210.405 1339.56 210.568 1337.91 211.523L1337.91 211.523C1336.36 212.421 1334.87 214.685 1334.15 218.83C1333.45 222.88 1333.6 228.246 1334.82 234.498C1334.82 234.499 1334.82 234.499 1334.82 234.499C1336.86 244.88 1341.76 257.532 1349.05 270.112C1356.4 282.818 1365.14 293.641 1373.19 300.573C1377.95 304.67 1382.45 307.36 1386.23 308.689C1390.08 310.044 1392.75 309.849 1394.31 308.943L1394.31 308.943C1395.94 308.001 1397.54 305.604 1398.34 301.303C1399.12 297.099 1399.03 291.531 1397.75 285.058L1397.75 285.057C1395.73 274.853 1390.49 262.544 1383.37 250.245L1383.37 250.245C1376.44 238.276 1368.43 227.889 1360.73 221.058L1360.73 221.058C1355.63 216.527 1350.76 213.504 1346.66 211.972ZM1346.77 271.429L1344.5 272.746C1336.99 259.781 1331.83 246.582 1329.66 235.509L1329.66 235.508C1328.36 228.835 1328.13 222.797 1328.97 217.937C1329.79 213.171 1331.74 209.02 1335.28 206.972C1335.28 206.972 1335.28 206.972 1335.28 206.972C1338.94 204.854 1343.71 205.261 1348.5 207.046C1353.37 208.867 1358.79 212.302 1364.22 217.126C1372.46 224.442 1380.81 235.327 1387.92 247.611C1395.19 260.175 1400.73 273.048 1402.91 284.036C1402.91 284.036 1402.91 284.037 1402.91 284.037C1404.28 290.975 1404.44 297.238 1403.51 302.263C1402.6 307.192 1400.52 311.425 1396.94 313.494C1393.46 315.513 1388.98 315.232 1384.48 313.65C1379.91 312.042 1374.86 308.943 1369.76 304.558L1369.76 304.558L1369.76 304.558C1361.16 297.155 1352.07 285.833 1344.5 272.746L1346.77 271.429Z" fill="#00D8FF"/>
<path fill-rule="evenodd" clip-rule="evenodd" d="M1346.66 308.307C1342.46 309.874 1339.56 309.712 1337.92 308.757L1337.91 308.756C1336.36 307.858 1334.87 305.594 1334.16 301.45C1333.46 297.399 1333.6 292.033 1334.83 285.781C1334.83 285.781 1334.83 285.781 1334.83 285.781C1336.86 275.399 1341.77 262.748 1349.05 250.167C1356.4 237.461 1365.14 226.638 1373.19 219.706C1377.95 215.609 1382.45 212.919 1386.23 211.59C1390.08 210.235 1392.75 210.431 1394.31 211.336L1394.31 211.336C1395.94 212.279 1397.55 214.675 1398.34 218.976C1399.12 223.181 1399.03 228.748 1397.75 235.222L1397.75 235.222C1395.73 245.427 1390.49 257.736 1383.37 270.034L1383.37 270.034C1376.44 282.003 1368.43 292.391 1360.74 299.221L1360.74 299.221C1355.63 303.752 1350.76 306.775 1346.66 308.307ZM1346.77 248.85L1344.5 247.533C1336.99 260.498 1331.83 273.697 1329.67 284.771L1329.67 284.771C1328.36 291.444 1328.14 297.483 1328.97 302.342C1329.79 307.108 1331.74 311.259 1335.28 313.307C1335.28 313.307 1335.28 313.308 1335.28 313.308C1338.94 315.426 1343.72 315.018 1348.5 313.233C1353.38 311.412 1358.79 307.977 1364.23 303.153C1372.47 295.838 1380.81 284.952 1387.92 272.668C1395.19 260.105 1400.74 247.232 1402.91 236.243C1402.91 236.243 1402.91 236.243 1402.91 236.243C1404.28 229.304 1404.45 223.042 1403.51 218.017C1402.6 213.088 1400.52 208.854 1396.95 206.785C1393.46 204.767 1388.98 205.048 1384.48 206.63C1379.91 208.237 1374.86 211.336 1369.76 215.721L1369.76 215.721L1369.76 215.721C1361.16 223.124 1352.07 234.447 1344.5 247.533L1346.77 248.85Z" fill="#00D8FF"/>
<rect x="-43" y="402.576" width="232.28" height="232.28" rx="16" fill="#222222"/>
<rect x="215.575" y="402.576" width="232.28" height="232.28" rx="16" fill="#222222"/>
<rect x="474.151" y="402.576" width="232.28" height="232.28" rx="16" fill="#222222"/>
<rect x="732.727" y="402.576" width="232.28" height="232.28" rx="16" fill="#222222"/>
<rect x="991.303" y="402.576" width="232.28" height="232.28" rx="16" fill="#222222"/>
<rect x="1249.88" y="402.576" width="232.28" height="232.28" rx="16" fill="#222222"/>
<g clip-path="url(#clip2_6_1170)">
<path d="M21.6841 482.27L72.3615 464.213L124.404 481.949L115.977 548.997L72.3615 573.153L29.4282 549.318L21.6841 482.27Z" fill="#E23237"/>
<path d="M124.404 481.949L72.3618 464.213V573.153L115.978 549.038L124.404 481.949Z" fill="#B52E31"/>
<path d="M72.4417 476.933L40.8638 547.192L52.6602 546.991L59.0002 531.142H87.3282L94.2699 547.192L105.545 547.392L72.4417 476.933ZM72.5223 499.443L83.1953 521.752H63.1326L72.5223 499.443Z" fill="white"/>
</g>
<path d="M299.185 471.973L318.874 471.981L331.745 493.344L344.57 471.982L364.242 471.977L331.843 528.177L299.185 471.973Z" fill="#35495E"/>
<path d="M277.711 472.124L299.168 471.976L331.824 528.179L364.225 471.98L385.719 472.002L331.821 564.5L277.711 472.124Z" fill="#41B883"/>
<g clip-path="url(#clip3_6_1170)">
<path d="M622.169 499.305C623.951 490.667 624.332 484.041 623.179 479.231C622.492 476.371 621.241 474.036 619.338 472.352C617.32 470.576 614.782 469.699 611.922 469.699C607.205 469.699 602.246 471.85 596.946 475.927C594.572 477.783 592.324 479.794 590.217 481.948C590.032 481.717 589.819 481.486 589.582 481.279C583.008 475.414 577.461 471.775 572.721 470.368C569.901 469.538 567.254 469.457 564.843 470.264C562.3 471.124 560.27 472.888 558.846 475.368C556.482 479.456 555.859 484.825 556.735 491.457C557.099 494.161 557.71 497.108 558.581 500.297C558.252 500.337 557.923 500.412 557.6 500.516C549.239 503.284 543.328 506.254 539.741 509.656C537.608 511.675 536.224 513.929 535.716 516.42C535.186 519.05 535.705 521.691 537.135 524.165C539.487 528.248 543.824 531.466 549.994 534.014C552.474 535.041 555.277 535.969 558.414 536.8C558.268 537.129 558.157 537.473 558.085 537.826C556.297 546.465 555.917 553.09 557.07 557.9C557.756 560.766 559.008 563.096 560.916 564.779C562.929 566.561 565.472 567.432 568.332 567.432C573.049 567.432 578.003 565.287 583.302 561.204C585.488 559.52 587.754 557.49 590.107 555.109C590.356 555.494 590.657 555.843 591.001 556.147C597.586 562.017 603.134 565.662 607.874 567.063C610.694 567.893 613.341 567.974 615.751 567.167C618.294 566.308 620.324 564.543 621.748 562.063C624.113 557.975 624.736 552.606 623.859 545.974C623.423 542.872 622.775 539.803 621.921 536.788C622.279 536.754 622.642 536.673 623 536.558C631.35 533.79 637.266 530.82 640.853 527.417C642.987 525.399 644.371 523.144 644.878 520.653C645.409 518.024 644.89 515.382 643.46 512.909C641.107 508.826 636.771 505.608 630.6 503.059C627.769 501.913 624.863 500.957 621.904 500.199C622.019 499.911 622.112 499.622 622.175 499.305H622.169Z" fill="#002C4B"/>
<path fill-rule="evenodd" clip-rule="evenodd" d="M581.872 500.839H598.711C599.219 500.839 599.717 500.972 600.157 501.226C600.596 501.481 600.961 501.846 601.214 502.287L609.656 516.991C609.907 517.428 610.039 517.923 610.039 518.427C610.039 518.931 609.907 519.426 609.656 519.863L601.214 534.568C600.961 535.008 600.598 535.373 600.159 535.627C599.721 535.881 599.223 536.015 598.717 536.016H581.872C581.365 536.016 580.866 535.882 580.426 535.628C579.987 535.374 579.622 535.008 579.37 534.568L570.933 519.863C570.682 519.426 570.55 518.931 570.55 518.427C570.55 517.923 570.682 517.428 570.933 516.991L579.37 502.287C579.622 501.846 579.987 501.481 580.426 501.226C580.866 500.972 581.365 500.839 581.872 500.839ZM596.629 504.461C597.137 504.46 597.636 504.594 598.075 504.848C598.514 505.102 598.879 505.468 599.132 505.908L605.481 516.991C605.732 517.428 605.864 517.923 605.864 518.427C605.864 518.931 605.732 519.426 605.481 519.863L599.132 530.947C598.879 531.387 598.514 531.753 598.075 532.007C597.636 532.261 597.137 532.395 596.629 532.394H583.96C583.452 532.395 582.953 532.261 582.514 532.007C582.075 531.753 581.71 531.387 581.457 530.947L575.102 519.863C574.851 519.426 574.719 518.931 574.719 518.427C574.719 517.923 574.851 517.428 575.102 516.991L581.457 505.914C581.71 505.474 582.075 505.108 582.514 504.854C582.953 504.6 583.452 504.466 583.96 504.466H596.629V504.461ZM594.38 508.416H586.203C585.696 508.417 585.199 508.551 584.76 508.805C584.322 509.059 583.958 509.425 583.706 509.864L579.612 516.991C579.361 517.428 579.229 517.923 579.229 518.427C579.229 518.931 579.361 519.426 579.612 519.863L583.706 526.991C583.959 527.429 584.323 527.793 584.761 528.046C585.2 528.299 585.697 528.432 586.203 528.432H594.369C594.876 528.433 595.374 528.301 595.813 528.048C596.253 527.794 596.618 527.43 596.871 526.991L600.966 519.863C601.217 519.426 601.349 518.931 601.349 518.427C601.349 517.923 601.217 517.428 600.966 516.991L596.871 509.864C596.618 509.425 596.253 509.06 595.813 508.807C595.374 508.554 594.876 508.421 594.369 508.422L594.38 508.416ZM592.206 512.205C592.712 512.205 593.209 512.338 593.648 512.591C594.086 512.845 594.45 513.208 594.703 513.647L596.623 516.991C596.874 517.428 597.006 517.923 597.006 518.427C597.006 518.931 596.874 519.426 596.623 519.863L594.703 523.208C594.45 523.646 594.086 524.01 593.648 524.263C593.209 524.516 592.712 524.65 592.206 524.65H588.383C587.876 524.651 587.377 524.518 586.938 524.265C586.499 524.012 586.134 523.647 585.88 523.208L583.96 519.863C583.709 519.426 583.577 518.931 583.577 518.427C583.577 517.923 583.709 517.428 583.96 516.991L585.88 513.647C586.134 513.208 586.499 512.843 586.938 512.59C587.377 512.337 587.876 512.204 588.383 512.205H592.206ZM590.292 515.936C589.631 515.936 588.997 516.199 588.53 516.666C588.063 517.133 587.8 517.767 587.8 518.427C587.8 519.088 588.063 519.722 588.53 520.189C588.997 520.656 589.631 520.919 590.292 520.919C590.952 520.919 591.586 520.656 592.053 520.189C592.52 519.722 592.783 519.088 592.783 518.427C592.783 517.767 592.52 517.133 592.053 516.666C591.586 516.199 590.952 515.936 590.292 515.936ZM570.108 518.427H574.589H570.108Z" fill="#FFD94C"/>
<path fill-rule="evenodd" clip-rule="evenodd" d="M567.144 526.42C567.324 526.317 567.523 526.25 567.728 526.225C567.934 526.199 568.143 526.215 568.342 526.27C568.542 526.326 568.729 526.421 568.891 526.55C569.054 526.678 569.189 526.838 569.289 527.019L569.56 527.504C571.752 531.391 574.041 535.081 576.423 538.576C579.377 542.896 582.535 547.074 585.886 551.095C586.15 551.416 586.28 551.826 586.248 552.24C586.215 552.654 586.024 553.04 585.713 553.315L585.367 553.621C573.77 563.753 566.233 565.777 562.756 559.693C559.354 553.742 560.582 542.924 566.447 527.239C566.579 526.893 566.821 526.604 567.144 526.42ZM616.547 538.345C616.95 538.273 617.366 538.362 617.704 538.594C618.042 538.826 618.275 539.182 618.352 539.585L618.438 540.046C621.304 555.04 619.286 562.542 612.383 562.542C605.637 562.542 597.044 556.141 586.607 543.356C586.419 543.126 586.3 542.847 586.264 542.552C586.229 542.256 586.278 541.957 586.406 541.689C586.534 541.42 586.736 541.194 586.988 541.036C587.24 540.878 587.532 540.795 587.829 540.796H588.377C592.777 540.825 597.044 540.669 601.196 540.34C606.342 539.92 611.465 539.254 616.547 538.345ZM620.514 506.496C620.665 506.104 620.962 505.785 621.342 505.606C621.723 505.428 622.158 505.404 622.556 505.539L623.017 505.694C637.912 510.769 643.575 516.345 640 522.429C636.5 528.375 626.321 532.705 609.471 535.416C609.096 535.473 608.716 535.41 608.387 535.22C608.205 535.116 608.045 534.978 607.917 534.812C607.789 534.646 607.696 534.456 607.642 534.254C607.588 534.051 607.576 533.84 607.605 533.633C607.633 533.425 607.703 533.226 607.811 533.046L608.099 532.561C610.406 528.698 612.482 524.857 614.338 521.034C616.627 516.292 618.687 511.442 620.509 506.502L620.514 506.496ZM571.112 502.015C571.487 501.958 571.867 502.021 572.196 502.211C572.378 502.315 572.538 502.453 572.666 502.619C572.794 502.785 572.887 502.975 572.941 503.177C572.995 503.38 573.007 503.591 572.979 503.798C572.95 504.006 572.88 504.205 572.773 504.385L572.484 504.87C570.178 508.734 568.102 512.574 566.245 516.397C563.956 521.139 561.896 525.989 560.074 530.929C559.925 531.324 559.628 531.645 559.246 531.825C558.864 532.005 558.427 532.029 558.027 531.892L557.566 531.737C542.676 526.662 537.008 521.086 540.583 515.002C544.084 509.056 554.262 504.726 571.112 502.015ZM595.216 483.81C606.813 473.678 614.35 471.654 617.827 477.738C621.229 483.689 620.001 494.507 614.137 510.192C614.035 510.476 613.853 510.724 613.613 510.907C613.374 511.089 613.086 511.199 612.786 511.222C612.486 511.245 612.185 511.181 611.92 511.037C611.655 510.893 611.438 510.676 611.294 510.412L611.023 509.927C608.891 506.142 606.601 502.448 604.16 498.855C601.206 494.535 598.048 490.357 594.697 486.336C594.433 486.016 594.303 485.605 594.335 485.191C594.368 484.777 594.559 484.391 594.87 484.116L595.216 483.81ZM568.776 474.312C575.529 474.312 584.121 480.713 594.553 493.498C594.741 493.728 594.859 494.007 594.895 494.301C594.931 494.596 594.882 494.895 594.755 495.163C594.627 495.431 594.426 495.658 594.175 495.816C593.924 495.975 593.633 496.059 593.336 496.058H592.788C588.389 496.03 584.121 496.185 579.969 496.514C574.823 496.934 569.701 497.6 564.618 498.509C564.215 498.582 563.799 498.492 563.461 498.26C563.123 498.028 562.891 497.672 562.814 497.269L562.727 496.808C559.855 481.815 561.874 474.312 568.776 474.312Z" fill="#FF4154"/>
</g>
<g clip-path="url(#clip4_6_1170)">
<path d="M816.572 511.787C813.376 513.291 804.918 520.058 803.289 522.063C801.597 524.068 801.096 520.935 802.85 515.735C804.228 511.537 807.737 505.835 813.627 500.948C817.073 498.128 824.655 494.056 829.291 491.674C830.231 491.173 842.386 486.035 853.226 483.466C854.166 483.216 852.098 485.033 851.785 486.035C850.156 490.797 817.637 511.223 817.637 511.223L816.572 511.787Z" fill="black"/>
<path d="M862.374 569.244C862.938 572.627 862.437 572.878 858.928 573.316C855.419 573.755 852.85 572.439 851.91 571.562C850.97 570.684 850.783 568.742 851.722 566.988C852.287 565.86 852.85 565.484 853.164 564.106C853.477 562.79 853.728 562.477 853.978 561.976C854.229 561.537 854.292 561.098 854.354 558.028C854.417 554.958 854.354 549.193 854.668 546.75C854.981 544.244 865.821 547.878 865.821 547.878C865.821 547.878 863.252 554.269 862.562 555.835C861.873 557.402 861.936 560.409 861.936 561.036C861.936 561.662 861.685 562.915 861.497 562.978C861.309 563.04 862.124 564.669 861.748 565.609C861.497 566.487 862.311 568.742 862.374 569.244Z" fill="black"/>
<path d="M866.51 473.441C866.134 471.06 866.51 466.361 867.011 465.609C868.578 463.479 876.848 463.228 878.603 465.734C879.355 466.862 879.292 469.494 879.167 471.186C879.041 472.877 878.603 476.511 878.54 477.702C878.477 478.579 869.392 479.957 867.387 477.576C866.823 476.95 866.51 473.441 866.51 473.441Z" fill="black"/>
<path d="M884.931 563.166C888.753 565.923 891.697 566.424 893.64 567.427C895.582 568.429 895.081 570.372 891.823 570.935C889.191 571.437 885.056 570.434 882.299 570.434C879.542 570.434 873.402 570.748 871.772 569.62C869.893 568.304 870.707 565.86 870.707 565.86C871.209 564.482 872.461 561.411 872.086 558.905C871.71 556.399 871.208 555.021 870.268 552.702C869.329 550.384 868.64 544.682 869.517 544.369C870.394 544.056 870.143 544.369 871.271 544.619C872.399 544.87 873.652 545.246 876.096 545.246C878.54 545.246 881.234 544.87 882.174 544.682C883.114 544.494 883.865 544.306 883.552 546.249C883.239 548.191 882.299 551.825 882.236 554.645C882.174 557.464 882.174 560.722 882.362 561.286C882.549 561.85 883.928 562.477 884.931 563.166Z" fill="black"/>
<path d="M871.522 479.707C864.63 485.659 851.284 487.288 831.485 494.932C826.409 496.875 812.875 502.702 809.617 508.78C820.582 502.451 824.655 511.161 825.532 520.121C826.346 528.517 830.544 532.903 841.321 532.652C852.412 532.401 855.795 538.855 858.865 546.437C864.818 517.426 874.342 511.787 880.482 506.837C893.515 496.248 877.474 477.576 871.522 479.707Z" fill="#88CE02"/>
<path d="M871.522 479.707C854.981 485.471 838.627 486.912 819.392 498.755C814.818 501.574 805.168 507.965 803.289 520.183C810.306 512.414 826.534 502.639 846.396 496.436C856.421 493.303 863.753 491.236 872.65 487.79C872.023 483.779 872.023 482.213 871.522 479.707Z" fill="#88CE02"/>
<path d="M892.637 514.043C892.637 514.043 891.447 518.116 889.066 519.432C889.066 519.432 887.312 520.058 883.803 518.116C882.8 517.552 882.049 515.61 882.111 514.983C882.174 513.479 883.114 512.79 883.114 512.79C883.114 512.79 884.116 511.098 885.307 511.161C886.497 511.223 888.502 511.411 889.129 510.847C889.692 510.221 892.763 511.975 892.637 514.043Z" fill="black"/>
<path d="M867.073 474.632C867.073 474.632 866.823 477.827 866.384 479.832C866.321 480.208 864.442 480.396 863.063 480.96C865.695 488.479 881.547 488.416 883.615 484.72C882.612 484.03 880.607 482.965 879.667 482.589C878.727 482.213 878.79 482.276 878.727 480.522C878.665 478.767 878.539 475.509 878.414 474.632C878.289 473.754 868.577 473.754 867.073 474.632Z" fill="black"/>
<path d="M867.7 474.632C867.7 474.632 867.7 476.449 867.512 478.203C867.45 479.018 867.387 479.519 867.262 480.145C867.199 480.521 869.392 482.025 870.018 485.346C873.026 492.05 879.981 488.729 882.863 485.534C881.861 484.844 880.231 483.905 878.352 483.153C877.412 482.777 877.851 481.962 877.788 480.208C877.725 478.454 877.475 475.885 877.349 474.945C877.224 474.005 869.204 473.754 867.7 474.632Z" fill="#EFEFEF"/>
<path d="M867.073 474.632C867.073 474.632 867.01 475.76 866.823 477.075C867.637 477.89 868.702 479.018 869.517 479.707C870.081 480.208 871.459 480.146 872.713 480.146C873.84 480.146 874.843 480.271 875.282 480.02C876.284 479.519 877.725 478.266 878.54 477.326C878.477 476.198 878.415 475.133 878.352 474.632C878.289 473.754 868.577 473.754 867.073 474.632Z" fill="black"/>
<path d="M872.775 479.393C872.023 479.393 871.146 479.331 870.457 479.206C870.143 479.143 869.83 478.955 869.579 478.83C869.141 478.516 868.702 478.141 868.201 477.764C867.198 477.013 867.136 476.574 867.136 476.386C867.574 472.439 867.01 469.118 867.01 469.118C867.01 469.118 866.572 467.426 868.953 466.987C871.334 466.549 872.775 466.486 872.775 466.486C872.775 466.486 874.279 466.486 876.597 466.987C878.978 467.426 878.539 469.118 878.539 469.118C878.539 469.118 877.975 472.439 878.414 476.386C878.414 476.574 878.351 477.013 877.349 477.764C876.471 478.391 875.782 479.08 875.093 479.206C874.404 479.331 873.527 479.393 872.775 479.393Z" fill="black"/>
<path d="M872.775 464.857C868.64 464.857 867.825 465.985 866.635 467.238C866.384 467.551 866.572 469.431 867.011 473.441H867.575C867.575 473.441 867.198 472.313 867.261 470.997C867.324 469.682 867.575 469.745 867.386 469.431C867.136 469.055 866.635 468.428 867.763 467.802C868.89 467.175 870.645 468.303 872.775 468.366C874.905 468.303 876.723 467.175 877.85 467.802C878.978 468.428 878.477 469.055 878.226 469.431C877.976 469.807 878.289 469.681 878.352 470.997C878.414 472.313 878.038 473.441 878.038 473.441H878.602C878.978 469.431 879.229 467.677 879.041 467.363C877.975 465.985 876.91 464.92 872.775 464.857Z" fill="black"/>
<path d="M892.637 514.231C892.637 514.231 891.447 518.053 889.128 519.368C888.627 519.118 888.69 518.742 888.251 518.178C888.126 517.99 887.687 517.865 887.499 517.677C887.311 517.489 887.374 517.175 887.061 516.925C886.81 516.674 886.622 516.862 886.371 516.674C886.121 516.424 886.058 516.111 885.87 515.923C885.745 515.797 885.244 515.735 885.118 515.609C884.805 515.296 882.048 514.732 882.174 514.105C882.424 513.165 882.925 512.476 882.925 512.476C882.925 512.476 884.116 510.722 885.306 510.784C886.496 510.847 887.624 511.098 888.251 510.534C888.94 509.907 892.825 512.226 892.637 514.231Z" fill="black"/>
<path d="M884.492 486.537C884.492 486.537 888.439 485.596 891.134 488.166C893.828 490.797 893.64 494.055 892.825 496.06C893.514 496.875 894.768 499.13 893.828 501.825C897.963 505.333 896.146 510.722 892.45 514.293C892.45 514.293 891.572 511.035 888.064 510.847C888.189 509.594 884.805 508.592 886.372 505.333C883.991 504.769 884.054 503.14 883.678 501.136C883.364 499.13 884.492 486.537 884.492 486.537Z" fill="black"/>
<path d="M883.051 488.291C883.051 488.291 887.625 485.973 890.319 488.604C893.013 491.236 892.261 494.118 891.447 496.123C892.136 496.937 893.765 499.256 892.762 502.013C892.574 502.639 891.196 502.639 890.193 504.268C892.699 502.827 894.266 503.203 894.83 505.02C895.707 507.84 893.765 511.223 892.073 513.103C892.073 513.04 892.01 512.977 892.01 512.915C891.76 513.855 891.446 515.672 889.567 517.677C888.627 518.679 887.875 518.554 886.81 518.303C885.557 517.99 885.118 517.426 883.364 516.486C882.361 515.922 882.925 515.233 882.925 514.669C882.925 514.544 883.05 514.356 883.239 514.105C883.364 513.792 883.74 513.291 884.304 512.727C884.304 512.727 885.118 511.599 886.309 511.662C887.499 511.724 888.752 511.474 889.066 511.161C889.066 508.968 886.56 508.905 887.437 505.145C887.499 504.958 887.813 504.644 888.815 504.519C887.311 504.205 886.622 504.143 885.557 503.14C884.805 502.451 884.241 501.574 884.053 500.446C883.677 498.504 883.051 488.291 883.051 488.291Z" fill="#EFEFEF"/>
<path d="M869.83 484.344C869.454 483.842 867.512 481.336 863.815 480.333C862.75 480.02 862.06 480.897 860.995 481.524C860.682 481.336 859.304 480.709 858.552 481.148C857.8 481.586 857.299 482.025 856.547 482.338C856.171 482.15 855.168 482.15 854.354 482.463C853.539 482.714 852.286 483.278 851.096 484.907C850.344 487.601 864.379 485.596 864.379 485.596L869.83 484.344Z" fill="black"/>
<path d="M869.955 484.344C867.95 483.654 868.264 481.336 863.815 480.96C862.938 480.897 862.374 481.586 861.747 482.025C862.061 482.338 862.374 482.84 862.562 483.341C861.998 482.714 860.995 481.9 859.992 481.712C859.053 481.524 858.426 482.213 857.424 482.714C857.611 482.902 857.799 483.215 858.05 483.592C857.173 483.028 856.546 482.84 855.356 483.278C854.541 483.529 852.975 484.218 851.784 485.91C851.033 488.604 864.441 485.596 864.441 485.596L869.955 484.344Z" fill="#88CE02"/>
<path d="M881.735 485.346C881.735 485.346 881.735 484.657 881.672 484.03C881.672 483.905 881.171 483.592 881.171 483.467L881.046 483.341C881.046 483.341 882.048 482.777 882.8 483.091C883.614 483.341 884.053 484.406 884.053 484.406C885.494 483.905 885.619 484.469 886.309 485.221C887.813 484.907 888 485.471 888.941 486.85C888.941 486.85 887.813 486.662 885.62 487.038C883.489 487.351 881.735 485.283 881.735 485.346Z" fill="black"/>
<path d="M881.484 485.033C881.484 485.033 881.86 484.719 881.735 484.656C882.424 484.28 883.364 483.842 883.802 485.033C885.244 484.531 885.432 485.221 886.121 485.973C887.875 485.158 888 486.16 888.126 486.599C887.562 486.599 886.748 486.662 885.62 486.787C883.489 487.1 881.422 484.97 881.484 485.033Z" fill="#88CE02"/>
<path d="M860.181 483.466C860.181 483.466 863.753 484.719 866.76 484.531C869.768 484.281 874.905 484.03 877.662 485.659C877.662 485.659 880.482 484.656 883.113 485.346C885.745 486.035 890.57 490.546 889.129 495.308C889.003 495.622 888.189 496.123 887.249 496.436C887.249 496.436 887.75 498.566 886.873 500.321C885.996 502.013 884.054 505.271 883.991 509.782C883.928 510.534 883.803 512.1 883.678 512.852C878.79 512.664 871.272 510.847 863.878 510.973C863.94 510.158 864.003 509.657 864.066 508.842H864.254C863.878 506.775 863.753 505.709 863.376 504.143C860.995 502.639 858.489 500.885 856.359 497.564C854.291 494.243 860.181 483.466 860.181 483.466Z" fill="black"/>
<path d="M884.366 517.301C884.366 517.301 888.251 531.211 883.677 537.038C883.677 537.038 884.366 539.732 882.8 542.615C882.549 543.867 882.236 544.996 882.048 546.248C881.234 551.449 879.855 553.642 879.479 561.975L875.719 561.913C875.719 561.913 875.281 555.898 873.965 552.702C873.214 550.885 870.268 548.441 870.394 545.998C870.519 544.118 870.895 542.552 874.091 540.045C874.341 536.412 870.707 532.965 871.271 519.431L884.366 517.301Z" fill="black"/>
<path d="M883.239 516.737C884.242 523.128 886.56 532.589 882.362 537.225C882.549 538.103 882.675 539.356 882.424 540.797C882.299 541.549 882.048 542.363 881.735 543.24C881.109 544.744 880.858 546.937 880.67 548.253C879.855 553.453 879.855 553.704 879.479 562.038L875.72 561.975C875.72 561.975 875.281 555.96 873.966 552.765C873.214 550.947 871.647 549.381 871.522 546.937C871.397 545.058 872.713 541.299 875.846 541.424C875.658 533.842 872.149 535.346 871.209 519.556L883.239 516.737Z" fill="#EFEFEF"/>
<path d="M860.181 483.466C860.181 483.466 861.559 483.905 863.063 484.03C864.567 484.155 866.196 484.03 867.637 483.967C870.645 483.717 874.905 483.404 877.725 485.033C877.725 485.033 879.291 484.531 880.983 484.656C881.735 484.719 882.487 485.346 883.364 485.597C886.121 486.286 888.753 490.859 887.562 494.995C887.437 495.309 886.559 494.995 885.557 495.309C885.744 496.186 885.87 498.191 884.867 500.321C883.802 502.452 882.424 505.208 882.674 510.472C876.095 510.158 873.151 509.72 866.634 509.406C866.07 507.088 865.694 504.77 865.632 503.579C866.509 503.141 867.01 502.765 867.699 502.013C865.82 502.326 865.068 502.201 863.94 501.574C862.812 500.948 860.807 498.943 859.805 497.627C859.679 497.501 858.99 499.569 857.424 499.632C856.86 498.817 859.241 496.499 858.802 495.622C857.236 492.426 860.181 483.466 860.181 483.466Z" fill="#EFEFEF"/>
<path d="M883.74 511.536C883.74 511.536 883.865 513.792 883.865 514.356C883.865 514.982 884.366 516.862 884.429 517.739C883.74 518.93 880.732 521.624 875.281 522.627C869.892 523.754 862.75 515.296 862.75 515.296C862.937 514.481 863.564 512.1 864.003 510.847C864.065 510.722 864.191 510.409 864.191 510.283C864.755 509.469 883.74 511.536 883.74 511.536Z" fill="black"/>
<path d="M882.362 511.725C882.362 513.291 882.612 514.419 882.8 515.421C883.113 517.239 883.614 518.429 883.614 519.619C883.614 523.253 878.853 522.627 874.842 522.752C869.454 523.88 864.88 515.421 864.88 515.421C865.256 513.98 865.506 512.351 866.07 510.973C866.133 510.221 866.258 509.281 866.321 508.843C873.965 508.843 879.353 509.281 882.486 509.594C882.612 510.283 882.487 511.474 882.362 511.725Z" fill="#EFEFEF"/>
<path d="M876.346 519.807C876.346 519.807 873.026 512.414 863.063 514.607C860.682 521.311 857.486 529.018 859.554 537.351C857.486 540.171 855.105 541.737 855.105 546.938C855.105 552.138 855.356 553.016 855.356 553.016L862.687 553.392C862.687 553.392 865.068 550.322 866.008 547.001C866.258 546.061 866.509 544.369 866.321 542.427C866.571 542.051 867.637 541.174 867.762 539.482C867.762 539.482 871.334 537.603 873.401 533.029C875.344 528.892 874.843 525.321 876.346 519.807Z" fill="black"/>
<path d="M876.346 519.807C876.159 519.118 873.652 512.351 864.379 514.356C858.928 528.892 860.933 534.908 861.747 537.539C858.05 542.238 856.359 543.241 857.111 552.765H861.998C864.254 549.193 864.755 547.877 864.88 543.178C864.88 542.99 864.191 543.554 863.69 544.181C864.066 542.238 865.131 541.862 865.945 540.672C866.321 540.171 866.635 539.419 866.635 538.416C871.02 535.471 872.65 531.775 873.589 527.952C874.341 525.321 875.218 520.998 876.346 519.807Z" fill="#EFEFEF"/>
<path d="M860.87 509.719C860.87 509.719 862.562 509.782 864.066 510.283C865.507 510.784 865.507 511.098 866.071 511.725C866.635 512.351 868.013 513.291 867.763 514.231C867.638 514.732 867.324 514.857 866.886 515.296C866.698 515.484 865.319 516.987 865.006 517.175C864.818 517.301 864.567 517.489 864.379 517.614C864.192 517.739 863.628 518.115 863.44 518.241C862.813 518.554 862.374 518.742 861.685 518.679C861.685 518.679 860.119 518.617 859.116 517.552C859.116 517.552 858.991 517.05 859.242 516.8C859.242 516.8 857.926 515.672 857.55 514.92C857.173 514.168 857.173 513.103 857.424 512.539C857.55 511.975 859.993 510.409 860.87 509.719Z" fill="black"/>
<path d="M862.437 570.685L862.249 572.251C862.249 572.251 861.685 572.94 857.487 572.878C853.226 572.815 852.098 571.499 851.723 570.81L851.472 569.181C851.472 569.181 852.287 567.99 852.475 567.99C853.853 568.116 858.553 569.996 861.811 570.497C862.123 570.497 862.186 570.622 862.437 570.685Z" fill="black"/>
<path d="M871.522 567.489C871.522 568.178 871.459 568.178 871.459 568.867C872.211 569.431 874.091 569.745 877.662 569.682C882.863 569.557 887.687 571.248 893.577 570.246L893.639 569.118L893.076 569.055L872.211 567.364L871.522 567.489Z" fill="black"/>
<path d="M876.096 569.682C876.597 569.682 877.098 569.682 877.662 569.682C881.046 569.557 884.241 570.309 887.687 570.497C889.504 570.434 891.76 569.995 891.572 568.68L873.777 567.176C872.712 568.366 873.526 569.369 876.096 569.682Z" fill="black"/>
<path d="M855.67 543.304C856.233 543.68 860.055 545.935 866.259 545.622C866.133 546.812 866.196 549.131 863.439 553.203C862.061 555.208 860.87 558.717 860.619 563.166C860.682 564.169 861.246 565.046 860.494 566.362C860.745 567.176 861.747 568.805 862.248 569.807C862.75 570.81 863 571.938 859.679 572.001C856.296 572.063 850.845 571.687 851.597 569.056C851.973 567.677 853.038 566.236 853.163 565.672C853.289 565.108 853.289 563.417 854.354 562.289C855.294 559.156 854.98 556.148 854.793 553.329C854.479 550.384 854.416 545.685 855.67 543.304Z" fill="black"/>
<path d="M861.497 492.238C865.945 486.286 862.186 481.524 855.043 482.965C852.161 483.529 849.279 485.534 849.091 489.168C848.151 489.293 846.021 489.418 844.955 493.303C844.141 496.311 843.702 496.875 842.261 498.378C841.321 499.443 842.324 501.636 843.013 503.203C845.331 508.592 852.474 509.093 857.299 513.165C858.928 512.727 860.619 510.91 861.121 509.72C857.048 504.895 857.925 503.015 856.296 500.509C858.051 499.882 862.061 497.439 861.497 492.238Z" fill="black"/>
<path d="M860.619 491.862C860.87 491.486 861.308 490.672 861.497 490.358C861.559 490.296 862.248 491.486 862.311 491.424C864.003 488.667 864.441 484.656 862.499 484.281C862.06 484.218 861.246 484.03 860.556 483.779C859.304 483.34 858.176 483.34 856.171 483.717C853.414 484.218 850.657 486.223 850.657 489.105C850.657 489.293 852.599 489.857 853.163 492.175C852.223 490.859 850.594 489.418 848.652 490.672C846.584 491.987 847.649 494.995 844.892 498.127C843.952 499.193 844.078 500.446 845.08 502.952C846.709 506.9 854.416 509.03 858.614 512.789C859.616 512.351 860.305 511.348 860.807 510.596C857.987 507.652 856.859 504.894 856.045 502.889C855.043 500.571 853.914 499.256 851.722 497.501C852.85 497.939 853.727 498.378 854.228 498.754C854.792 499.13 855.606 499.192 856.358 498.942C859.053 498.003 860.494 494.243 860.619 491.862Z" fill="#EFEFEF"/>
<path d="M887.875 492.865C887.687 495.246 885.933 494.055 884.993 493.617C883.113 492.802 881.234 492.238 879.041 492.238C876.848 492.238 874.028 492.426 871.585 493.053C868.201 493.993 867.198 493.93 865.695 493.178C864.191 492.363 861.56 490.358 861.56 490.358C861.56 490.358 861.497 490.985 862.124 491.8C862.938 492.802 864.755 494.055 867.199 494.87C868.389 495.246 869.329 494.995 870.395 494.744C875.971 493.366 881.861 493.115 886.81 496.123C887.061 496.248 887.938 495.872 888.314 495.308C888.815 494.494 887.875 492.865 887.875 492.865Z" fill="black"/>
<path d="M859.367 516.737C859.868 517.05 860.494 517.238 861.183 517.802C861.183 517.802 860.62 517.802 860.369 517.552C860.056 517.364 859.429 516.8 859.367 516.737Z" fill="#001423"/>
<path d="M877.474 467.05C877.286 466.486 875.907 465.483 872.712 465.483C869.266 465.483 868.264 466.549 868.201 467.113C868.201 467.3 867.95 469.306 867.888 470.12C867.888 470.12 867.888 471.123 867.95 472.626C868.013 473.629 868.264 474.193 868.389 475.509C868.514 476.887 868.89 477.764 869.579 478.892C869.893 479.08 870.143 479.268 870.457 479.331C871.71 479.581 873.903 479.644 875.093 479.331C875.782 479.143 876.66 477.952 876.848 476.887C877.098 475.571 877.349 474.631 877.411 473.817C877.537 473.003 877.599 471.185 877.662 470.684C877.85 469.306 877.537 467.175 877.474 467.05Z" fill="#EFEFEF"/>
<path d="M870.895 544.494C870.895 544.494 874.216 545.935 882.424 544.682C882.424 544.682 880.106 556.336 881.171 562.163C881.171 562.163 882.236 563.667 890.131 566.549C890.131 566.549 893.64 567.426 893.515 569.181C893.515 569.181 893.64 569.557 889.379 569.431C885.119 569.306 881.109 568.554 878.289 568.554C875.469 568.554 872.462 568.679 871.961 567.865C871.397 567.113 872.086 565.171 872.901 564.043C873.778 562.853 873.527 561.975 873.465 559.845C873.276 554.269 869.015 548.504 870.895 544.494Z" fill="black"/>
<path d="M870.206 545.559C869.767 546.186 870.268 548.567 870.895 550.885C871.522 553.203 872.9 554.582 873.213 558.404C873.527 562.163 873.589 562.665 872.524 564.857C871.459 567.05 871.146 569.055 874.842 569.118C878.539 569.181 880.544 569.055 884.304 569.619C888.063 570.183 889.379 570.371 891.447 570.058C893.514 569.745 893.953 569.055 893.076 568.429C892.198 567.802 888.564 567.113 886.998 565.86C885.494 564.732 881.234 562.852 881.171 562.351C880.983 560.659 880.92 554.519 881.234 552.514C881.547 550.509 881.985 547.627 882.111 546.875C882.236 546.123 882.863 545.371 881.797 545.621C880.732 545.872 876.722 546.436 873.715 546.248C870.707 546.06 870.394 545.371 870.206 545.559Z" fill="#88CE02"/>
<path opacity="0.3" d="M872.336 564.92C873.401 565.421 874.968 565.797 876.159 565.797C876.159 565.797 875.72 567.865 876.409 569.118C877.098 570.371 871.396 569.62 871.396 569.62L871.146 565.171L872.336 564.92Z" fill="black"/>
<path opacity="0.3" d="M888.941 570.309C889.943 569.995 890.633 568.868 889.818 567.803C888.941 566.737 888.189 566.549 889.317 566.487C890.445 566.424 894.58 568.93 894.58 568.93L892.449 570.873L888.941 570.309Z" fill="black"/>
<path opacity="0.3" d="M870.018 548.003C871.459 548.504 873.652 548.629 875.532 548.567C877.411 548.504 880.231 548.253 882.048 547.627C883.865 547 883.113 548.316 883.113 548.316L882.111 549.256C882.111 549.256 879.73 550.196 875.845 550.133C871.271 550.071 869.893 549.57 869.893 549.57L870.018 548.003Z" fill="black"/>
<path opacity="0.3" d="M870.143 551.136C871.585 551.637 873.777 551.762 875.657 551.7C877.537 551.637 880.043 551.637 881.86 550.948C882.612 550.697 882.174 551.762 882.174 551.762L881.86 552.326C881.86 552.326 879.416 553.204 875.594 553.14C871.02 553.078 870.206 552.702 870.206 552.702L870.143 551.136Z" fill="black"/>
<path d="M866.008 507.213C866.008 507.652 870.895 510.095 873.589 510.597C876.284 511.098 881.923 510.597 882.8 510.409L882.674 511.286C882.674 511.286 875.97 512.289 870.832 510.91C865.694 509.532 866.259 509.218 866.259 509.218L866.008 507.213Z" fill="black"/>
<path d="M855.544 560.66C856.296 561.036 858.991 561.725 860.745 561.349C860.995 561.286 860.745 557.025 861.434 555.083C862.437 552.389 864.066 550.196 864.817 545.434C862.186 545.183 859.179 544.494 857.612 543.993C855.607 550.133 856.297 555.396 855.544 560.66Z" fill="#EFEFEF"/>
<path d="M859.743 564.607C860.181 564.732 860.495 565.233 860.62 564.921C860.87 564.356 860.181 563.292 860.119 562.54C860.119 562.477 860.119 562.54 860.119 562.477C859.555 561.976 855.733 561.913 855.983 562.164C855.545 562.978 854.856 562.853 854.605 564.482C854.48 565.296 855.483 564.607 856.422 564.544C854.73 565.672 852.788 567.114 852.475 568.367C852.099 570.121 852.725 570.622 854.605 571.562C856.234 571.938 858.177 572.001 859.68 571.938C861.372 571.625 861.686 570.811 861.184 569.683C860.432 567.991 859.931 565.798 859.743 564.607Z" fill="#EFEFEF"/>
<path d="M860.432 483.216C862.499 484.406 865.382 484.093 866.447 484.03C866.697 484.03 869.204 483.591 869.329 483.654C869.579 483.717 869.579 483.905 869.579 483.905C869.579 483.905 868.64 484.406 866.509 484.531C864.504 484.656 862.123 484.531 860.808 483.905C859.241 483.216 860.432 483.216 860.432 483.216Z" fill="black"/>
<path d="M881.735 484.406C882.111 484.656 884.554 485.596 885.62 486.724C886.559 487.727 886.058 487.664 885.87 487.413C885.62 487.1 883.677 485.784 882.925 485.471C882.173 485.158 881.233 484.594 881.233 484.469C881.233 484.344 881.735 484.406 881.735 484.406Z" fill="black"/>
<path d="M860.118 510.409C861.935 510.284 863.815 510.722 865.005 511.975C865.632 512.602 866.635 513.291 866.509 513.917C866.509 514.105 866.133 514.607 865.82 514.983C865.632 515.233 865.069 515.797 864.88 515.985C864.63 516.173 863.753 516.862 863.565 516.988C863.377 517.113 863.126 517.427 862.938 517.489C862.312 517.803 861.622 517.552 860.996 517.239C860.369 516.925 861.121 516.862 860.432 516.361C858.74 515.171 857.8 514.356 858.49 512.038C858.552 511.599 859.241 511.098 860.118 510.409Z" fill="#EFEFEF"/>
<path opacity="0.4" d="M844.141 496.06C838.502 498.316 824.153 505.459 820.081 507.652C823.464 509.782 825.03 514.92 825.532 520.121C825.594 520.622 825.657 521.061 825.72 521.562C825.782 522.001 825.845 522.314 825.907 522.502C825.907 522.565 825.907 522.69 825.97 522.752C829.667 512.665 842.887 502.013 843.389 501.199C843.639 500.823 843.075 499.193 843.953 497.627C845.081 495.622 847.274 494.744 844.141 496.06Z" fill="black"/>
<path opacity="0.4" d="M857.549 543.366C860.431 537.602 860.494 532.088 860.431 525.634C860.431 522.94 862.374 519.118 861.372 520.183C857.612 524.381 848.151 532.276 841.321 532.714C850.908 532.401 854.667 537.226 857.549 543.366Z" fill="black"/>
<path d="M814.567 512.978C818.138 510.409 836.622 500.572 841.071 499.193C845.519 497.752 844.141 496.06 844.141 496.06C844.141 496.06 826.096 503.829 815.319 510.534" fill="black"/>
<path opacity="0.4" d="M867.199 494.87C865.758 494.306 864.63 495.998 865.006 497.627C865.382 499.256 868.765 501.073 868.577 507.026C868.452 511.913 867.387 513.918 867.387 513.918L865.006 510.911C865.006 510.911 864.63 504.143 863.815 503.141C863.001 502.138 860.432 500.321 859.429 499.382C858.427 498.441 860.557 497.189 860.432 495.434C860.307 493.742 861.497 490.359 861.497 490.359L867.199 494.87Z" fill="black"/>
<path opacity="0.4" d="M875.908 521.562C875.783 526.261 876.848 533.216 877.287 536.537C877.725 539.857 878.289 540.108 877.287 541.612C876.284 543.053 874.969 545.434 874.969 545.434L870.645 545.058C870.645 545.058 874.091 540.672 874.279 539.857C874.467 539.043 872.525 532.84 872.525 532.84L875.908 521.562Z" fill="black"/>
<path opacity="0.4" d="M867.575 477.702C868.452 479.644 869.517 480.521 871.209 481.086C872.211 481.461 876.158 481.963 877.725 480.208C878.414 479.394 877.975 477.201 877.975 477.201L874.404 480.083L869.579 479.206L869.016 477.765L867.575 477.702Z" fill="black"/>
<path d="M867.95 482.025C869.579 483.09 873.652 484.093 874.78 484.281C875.908 484.531 877.725 483.09 878.602 482.715C879.542 482.276 881.171 482.025 883.051 483.717C883.239 483.905 882.612 484.72 882.612 484.72C882.549 484.657 882.173 484.657 881.672 484.406C881.171 484.156 880.732 483.967 879.98 484.03C876.847 484.406 876.346 485.471 873.59 484.844C870.833 484.218 870.143 483.717 867.449 483.842" fill="#88CE02"/>
<path d="M867.95 482.025C869.579 483.09 873.652 484.093 874.78 484.281C875.908 484.531 877.725 483.09 878.602 482.715C879.542 482.276 881.171 482.025 883.051 483.717C883.239 483.905 882.612 484.72 882.612 484.72C882.549 484.657 882.173 484.657 881.672 484.406C881.171 484.156 880.732 483.967 879.98 484.03C876.847 484.406 876.346 485.471 873.59 484.844C870.833 484.218 870.143 483.717 867.449 483.842" stroke="black" stroke-width="1.586" stroke-linejoin="round"/>
<path d="M867.387 482.213C869.455 483.09 873.465 484.03 874.592 484.281C875.72 484.532 877.537 483.404 878.414 482.84C879.981 481.837 881.986 482.652 882.926 483.717C883.552 484.406 883.803 484.845 883.803 485.033C883.803 485.283 883.051 485.033 883.051 485.033C882.613 484.845 882.111 484.782 881.736 484.531C881.234 484.281 880.733 483.905 879.981 483.967C876.848 484.344 876.222 485.409 873.528 484.782C870.834 484.155 870.144 483.592 867.262 483.779" fill="#88CE02"/>
<path d="M857.675 540.734C857.55 540.609 857.8 540.484 857.675 540.484C856.861 540.484 855.733 539.857 855.106 538.98C852.412 535.096 848.464 532.527 841.321 532.715C830.607 532.965 826.346 528.579 825.532 520.183C825.093 515.609 823.84 511.161 821.271 508.654L819.767 509.594C822.649 512.1 823.589 516.173 824.216 521.75C825.218 530.146 831.985 534.031 839.88 534.156C848.088 534.281 851.033 535.973 854.103 540.108C855.105 541.424 856.233 541.863 857.11 542.051L857.675 540.734Z" fill="black"/>
<path opacity="0.4" d="M886.748 500.446C886.936 501.386 887.437 503.203 888.44 504.08C888.878 504.519 888.941 504.644 888.565 504.644C888.189 504.644 885.432 504.519 885.432 504.519L884.68 503.203L886.748 500.446Z" fill="black"/>
</g>
<g clip-path="url(#clip5_6_1170)">
<path d="M1107.45 485.847C1092.84 485.847 1083.71 493.149 1080.05 507.758C1085.53 500.456 1091.92 497.717 1099.23 499.543C1103.4 500.582 1106.38 503.606 1109.68 506.956C1115.05 512.406 1121.26 518.715 1134.84 518.715C1149.45 518.715 1158.57 511.413 1162.23 496.801C1156.75 504.107 1150.36 506.846 1143.06 505.02C1138.89 503.98 1135.91 500.957 1132.61 497.607C1127.24 492.157 1121.02 485.847 1107.45 485.847ZM1080.05 518.715C1065.45 518.715 1056.32 526.018 1052.66 540.63C1058.14 533.324 1064.53 530.585 1071.83 532.411C1076 533.451 1078.98 536.474 1082.28 539.824C1087.65 545.274 1093.87 551.584 1107.45 551.584C1122.05 551.584 1131.18 544.282 1134.84 529.673C1129.36 536.975 1122.97 539.714 1115.66 537.888C1111.5 536.849 1108.52 533.825 1105.21 530.475C1099.85 525.025 1093.63 518.715 1080.05 518.715Z" fill="#38BDF8"/>
</g>
<path fill-rule="evenodd" clip-rule="evenodd" d="M1408.42 546.611L1407.98 547.762C1400.5 562.378 1387.2 571.34 1368.21 571.735C1359.33 571.921 1350.9 569.653 1345.38 567.166C1333.66 561.768 1324.03 552.677 1317.97 541.286C1310.12 526.089 1308.7 504.932 1325.03 489.133C1325.28 489.133 1323.06 492.562 1323.3 492.562L1322.86 494.03C1311.09 530.845 1347.33 562.4 1382.55 558.795C1391.01 557.918 1401.8 553.295 1408.43 546.611" fill="#78CFF5"/>
<path fill-rule="evenodd" clip-rule="evenodd" d="M1387.11 531.392C1395.98 531.447 1405.23 527.306 1410.71 521.499C1405.92 533.66 1392.03 541.494 1373.41 539.007C1357.82 536.925 1342.97 521.225 1341.44 505.502C1340.32 494.063 1344.31 487.237 1350.88 478.954C1348.6 483.282 1347.74 486.624 1347.53 488.76C1345.04 513.511 1367.3 531.261 1387.11 531.381" fill="#78CFF5"/>
<path fill-rule="evenodd" clip-rule="evenodd" d="M1409.82 500.648C1408.44 503.815 1400.51 509.775 1397 510.52C1383.14 513.478 1374.26 506.904 1369.61 499.421C1368.91 498.303 1367.64 495.246 1367.41 494.469C1365.6 488.333 1366.42 479.053 1371.81 474.254C1370.19 478.823 1369.95 484.115 1370.81 487.577C1371.32 489.659 1372.9 493.296 1374.48 495.586C1377.35 499.75 1379.17 500.769 1382.85 502.993C1384.51 503.979 1386.29 504.79 1387.07 505.009C1390.56 506.028 1397.93 508.734 1409.82 500.648Z" fill="#78CFF5"/>
<rect x="-43" y="661.151" width="232.28" height="232.28" rx="16" fill="#222222"/>
<rect x="215.575" y="661.151" width="232.28" height="232.28" rx="16" fill="#222222"/>
<rect x="474.151" y="661.151" width="232.28" height="232.28" rx="16" fill="#222222"/>
<rect x="732.727" y="661.151" width="232.28" height="232.28" rx="16" fill="#222222"/>
<rect x="991.303" y="661.151" width="232.28" height="232.28" rx="16" fill="#222222"/>
<rect x="1249.88" y="661.151" width="232.28" height="232.28" rx="16" fill="#222222"/>
<g clip-path="url(#clip6_6_1170)">
<mask id="mask0_6_1170" style="mask-type:luminance" maskUnits="userSpaceOnUse" x="18" y="722" width="110" height="111">
<path d="M127.923 722.508H18.3569V832.074H127.923V722.508Z" fill="white"/>
</mask>
<g mask="url(#mask0_6_1170)">
<path fill-rule="evenodd" clip-rule="evenodd" d="M110.706 795.478C111.169 795.212 111.553 794.829 111.822 794.367C112.09 793.906 112.232 793.382 112.234 792.848L112.288 775.235C112.29 774.702 112.432 774.177 112.701 773.716C112.969 773.254 113.353 772.872 113.816 772.606L123.364 767.121C123.826 766.856 124.351 766.716 124.884 766.717C125.418 766.718 125.942 766.859 126.404 767.127C126.866 767.394 127.249 767.778 127.516 768.24C127.782 768.702 127.923 769.226 127.923 769.76V801.781C127.923 802.316 127.781 802.842 127.513 803.305C127.245 803.768 126.859 804.153 126.395 804.419L90.3628 825.115C89.9026 825.379 89.3815 825.519 88.8508 825.519C88.3201 825.52 87.7986 825.382 87.3377 825.118L59.0605 808.945C58.5948 808.679 58.2076 808.295 57.9381 807.831C57.6686 807.367 57.5269 806.84 57.5266 806.304V790.158C57.5266 790.139 57.5478 790.127 57.5663 790.136C57.5813 790.146 57.6026 790.136 57.6026 790.115V790.097C57.6026 790.085 57.6087 790.072 57.6211 790.066L80.91 776.687C80.9312 776.675 80.922 776.642 80.8977 776.642C80.8911 776.642 80.8853 776.639 80.8805 776.634C80.8757 776.63 80.8733 776.623 80.8733 776.617L80.9189 760.788C80.9209 760.253 80.7819 759.726 80.5155 759.262C80.2495 758.797 79.8657 758.412 79.4024 758.143C78.9395 757.874 78.4139 757.733 77.8784 757.732C77.3433 757.732 76.8173 757.872 76.3537 758.14L59.0454 768.114C58.5832 768.38 58.06 768.52 57.5266 768.52C56.9938 768.52 56.4699 768.38 56.008 768.114L38.6448 758.116C38.1822 757.849 37.6577 757.709 37.1239 757.71C36.5901 757.71 36.0658 757.851 35.6036 758.118C35.1414 758.385 34.7576 758.769 34.4906 759.231C34.2236 759.693 34.0829 760.218 34.0826 760.752V789.36C34.0829 789.894 33.9432 790.417 33.6773 790.88C33.4115 791.342 33.0289 791.726 32.5678 791.994C32.1067 792.262 31.5834 792.404 31.0501 792.405C30.5169 792.408 29.9925 792.27 29.5295 792.005L19.8938 786.496C19.4271 786.23 19.0393 785.844 18.7699 785.379C18.5004 784.914 18.359 784.386 18.3599 783.848L18.4451 733.844C18.4462 733.311 18.5874 732.787 18.8544 732.326C19.1215 731.864 19.505 731.481 19.9667 731.215C20.4283 730.948 20.9519 730.808 21.485 730.807C22.0181 730.806 22.542 730.946 23.0042 731.211L56.0111 750.169C56.4723 750.434 56.9948 750.573 57.5266 750.573C58.0586 750.573 58.5811 750.434 59.0423 750.169L92.0398 731.211C92.5027 730.945 93.0276 730.806 93.5614 730.807C94.0956 730.808 94.6194 730.949 95.0816 731.217C95.5432 731.485 95.9267 731.869 96.1931 732.332C96.4598 732.794 96.5998 733.319 96.5991 733.853V783.87C96.5995 784.405 96.4584 784.93 96.1907 785.394C95.9232 785.857 95.5381 786.242 95.0741 786.508L77.7932 796.461C77.3292 796.728 76.9437 797.114 76.6763 797.578C76.4089 798.042 76.2685 798.569 76.2699 799.104C76.2709 799.64 76.4137 800.166 76.6835 800.629C76.9529 801.092 77.3402 801.476 77.8055 801.741L87.3377 807.168C87.7986 807.43 88.3194 807.567 88.8497 807.566C89.3794 807.565 89.9002 807.426 90.36 807.162L110.706 795.478ZM112.705 750.61C112.706 751.149 112.849 751.677 113.12 752.142C113.391 752.607 113.781 752.991 114.25 753.257C114.718 753.522 115.248 753.658 115.787 753.651C116.324 753.645 116.851 753.495 117.313 753.219L126.444 747.74C126.894 747.47 127.267 747.088 127.527 746.631C127.786 746.174 127.922 745.658 127.923 745.132V733.969C127.922 733.431 127.778 732.902 127.507 732.438C127.235 731.974 126.845 731.589 126.377 731.325C125.909 731.06 125.379 730.924 124.841 730.931C124.303 730.938 123.776 731.087 123.315 731.363L114.184 736.842C113.734 737.112 113.361 737.494 113.101 737.951C112.842 738.408 112.706 738.924 112.705 739.45V750.61Z" fill="#007FFF"/>
</g>
</g>
<g clip-path="url(#clip7_6_1170)">
<path d="M276.932 817.946C276.932 825.749 283.245 832.074 291.031 832.074H372.175C379.963 832.074 386.274 825.748 386.274 817.946V736.636C386.274 728.832 379.962 722.508 372.176 722.508H291.031C283.244 722.508 276.932 728.833 276.932 736.635V817.946Z" fill="#563D7C"/>
<path d="M322.274 770.973V755.457H335.904C337.202 755.457 338.454 755.565 339.659 755.782C340.865 755.999 341.931 756.385 342.858 756.943C343.785 757.501 344.527 758.275 345.084 759.266C345.64 760.257 345.918 761.527 345.918 763.075C345.918 765.862 345.084 767.876 343.415 769.114C341.746 770.353 339.613 770.973 337.017 770.973H322.274ZM307.717 744.121V810.46H339.799C342.766 810.46 345.656 810.089 348.468 809.345C351.281 808.602 353.784 807.456 355.979 805.908C358.173 804.359 359.919 802.361 361.217 799.915C362.516 797.468 363.164 794.572 363.164 791.227C363.164 787.077 362.16 783.531 360.151 780.589C358.142 777.647 355.097 775.587 351.018 774.41C353.985 772.986 356.226 771.158 357.74 768.929C359.255 766.699 360.012 763.912 360.012 760.566C360.012 757.47 359.502 754.868 358.482 752.762C357.462 750.656 356.025 748.968 354.17 747.698C352.316 746.429 350.091 745.515 347.494 744.958C344.898 744.4 342.024 744.121 338.871 744.121H307.717ZM322.274 799.125V780.914H338.129C341.282 780.914 343.816 781.642 345.733 783.098C347.649 784.553 348.607 786.984 348.607 790.391C348.607 792.126 348.314 793.55 347.726 794.665C347.139 795.78 346.351 796.663 345.362 797.313C344.373 797.964 343.229 798.428 341.931 798.707C340.633 798.985 339.273 799.125 337.851 799.125H322.274Z" fill="white"/>
</g>
<g clip-path="url(#clip8_6_1170)">
<path d="M520.169 749.899V796.856H559.3V804.682H590.604V796.856H661.039V749.899" fill="#CB3837"/>
<path d="M527.995 757.726V789.03H543.647V765.552H551.474V789.03H559.3V757.726H567.126V796.856H582.778V765.552H590.604V781.204H582.778V789.03H598.43V757.726H606.257V789.03H621.909V765.552H629.735V789.03H637.561V765.552H645.387V789.03H653.213V757.726" fill="white"/>
</g>
<g clip-path="url(#clip9_6_1170)">
<path d="M892.307 776.308C892.307 770.691 887.753 766.137 882.136 766.137C881.775 766.137 881.418 766.156 881.067 766.193L895.036 724.992H835.671L849.621 766.157C849.416 766.145 849.211 766.137 849.003 766.137C843.386 766.137 838.832 770.691 838.832 776.308C838.832 780.848 841.808 784.692 845.915 786C843.746 789.757 841.016 793.141 837.917 796.065C833.704 800.04 828.881 803.054 823.665 804.912C817.455 801.722 814.523 794.627 817.169 788.406C817.468 787.704 817.773 786.992 818.064 786.283C822.563 785.233 825.915 781.2 825.915 776.381C825.915 770.764 821.362 766.21 815.745 766.21C810.127 766.21 805.574 770.764 805.574 776.381C805.574 779.825 807.288 782.868 809.907 784.708C807.39 790.439 803.69 796.438 802.537 803.39C801.155 811.722 802.532 820.566 809.738 825.561C826.521 837.192 844.738 818.35 863.946 813.613C870.907 811.897 878.548 812.173 884.682 808.621C889.287 805.954 892.323 801.533 893.185 796.57C894.036 791.667 892.795 786.785 889.941 782.827C891.417 781.062 892.307 778.789 892.307 776.308Z" fill="#99425B"/>
<path d="M890.738 796.145C889.99 800.454 887.329 804.217 883.437 806.472C879.809 808.573 875.461 809.2 870.858 809.864C868.392 810.219 865.843 810.587 863.352 811.201C856.765 812.826 850.386 815.994 844.216 819.059C831.87 825.191 821.208 830.487 811.154 823.519C803.789 818.415 804.129 808.971 804.987 803.796C805.783 799.002 807.932 794.587 810.011 790.316C810.37 789.578 810.722 788.853 811.065 788.135C812.095 788.547 813.191 788.828 814.334 788.955C812.217 795.939 815.545 803.533 822.53 807.121L823.486 807.612L824.499 807.252C830.021 805.285 835.109 802.13 839.622 797.871C842.539 795.119 845.048 792.074 847.109 788.821C847.727 788.914 848.359 788.963 849.003 788.963C855.414 788.963 860.723 784.17 861.544 777.98C864.168 777.884 866.956 777.883 869.595 777.979C870.416 784.17 875.725 788.963 882.136 788.963C884.817 788.963 887.303 788.123 889.351 786.696C890.773 789.607 891.304 792.882 890.738 796.145ZM815.745 768.694C819.983 768.694 823.432 772.142 823.432 776.381C823.432 777.903 822.985 779.323 822.218 780.519C820.94 782.511 818.768 783.877 816.273 784.048C816.098 784.059 815.922 784.068 815.745 784.068C814.8 784.068 813.895 783.895 813.059 783.583C811.366 782.949 809.956 781.735 809.069 780.184C808.427 779.062 808.058 777.764 808.058 776.381C808.058 772.142 811.506 768.694 815.745 768.694ZM841.316 776.308C841.316 772.457 844.163 769.259 847.862 768.706C848.235 768.65 848.616 768.621 849.003 768.621C851.467 768.621 853.661 769.789 855.068 771.597C855.418 772.047 855.721 772.534 855.966 773.055C856.429 774.044 856.69 775.146 856.69 776.308C856.69 776.922 856.615 777.52 856.479 778.093C855.729 781.229 853.055 783.626 849.779 783.956C849.524 783.981 849.265 783.995 849.003 783.995C847.468 783.995 846.039 783.541 844.837 782.763C842.721 781.392 841.316 779.011 841.316 776.308ZM873.398 767.167C871.752 768.743 870.527 770.756 869.917 773.02C867.071 772.913 864.052 772.913 861.222 773.02C860.572 770.607 859.224 768.478 857.41 766.862L865.364 750.778L873.398 767.167ZM839.136 727.476H891.571L879.187 764.003C878.65 764.132 878.126 764.294 877.618 764.489L865.384 739.531L853.115 764.34C852.585 764.157 852.038 764.01 851.479 763.899L839.136 727.476ZM889.823 776.308C889.823 777.079 889.708 777.823 889.496 778.525C888.991 780.196 887.932 781.628 886.533 782.608C885.286 783.48 883.77 783.995 882.136 783.995C878.587 783.995 875.593 781.576 874.713 778.301C874.542 777.665 874.449 776.997 874.449 776.308C874.449 775.257 874.662 774.255 875.045 773.342C875.242 772.872 875.489 772.427 875.772 772.009C877.155 769.968 879.49 768.621 882.136 768.621C882.379 768.621 882.618 768.634 882.855 768.656C886.758 769.019 889.823 772.312 889.823 776.308ZM894.791 776.308C894.791 770.13 890.34 764.975 884.476 763.873L898.502 722.508H832.207L846.253 763.958C840.593 765.217 836.348 770.274 836.348 776.308C836.348 780.838 838.743 784.818 842.331 787.054C840.605 789.625 838.558 792.045 836.213 794.258C832.493 797.767 828.349 800.428 823.882 802.179C819.382 799.353 817.48 794.022 819.455 789.378L819.61 789.014C819.707 788.787 819.804 788.559 819.9 788.332C824.843 786.608 828.4 781.903 828.4 776.381C828.4 769.403 822.723 763.726 815.745 763.726C808.767 763.726 803.09 769.403 803.09 776.381C803.09 779.903 804.538 783.092 806.868 785.389C806.445 786.289 806.001 787.204 805.544 788.141C803.414 792.517 801 797.476 800.086 802.984C798.273 813.921 801.198 822.664 808.324 827.602C812.648 830.599 817.038 831.777 821.457 831.777C829.778 831.777 838.194 827.597 846.426 823.508C852.355 820.564 858.486 817.518 864.541 816.025C866.794 815.469 869.113 815.135 871.567 814.781C876.435 814.079 881.468 813.353 885.927 810.771C891.095 807.777 894.632 802.756 895.633 796.995C896.491 792.049 895.458 787.095 892.938 782.894C894.113 780.974 894.791 778.719 894.791 776.308Z" fill="white"/>
</g>
<path d="M1408.32 752.182L1368.32 823.704C1368.13 824.04 1367.86 824.32 1367.53 824.515C1367.2 824.711 1366.82 824.815 1366.44 824.817C1366.05 824.819 1365.67 824.719 1365.34 824.528C1365.01 824.336 1364.73 824.059 1364.54 823.726L1323.76 752.204C1323.55 751.845 1323.46 751.437 1323.47 751.025C1323.49 750.613 1323.63 750.216 1323.87 749.878C1324.1 749.541 1324.43 749.278 1324.81 749.12C1325.19 748.962 1325.61 748.916 1326.02 748.986L1366.06 756.138C1366.32 756.182 1366.58 756.182 1366.84 756.138L1406.02 748.986C1406.42 748.914 1406.84 748.958 1407.22 749.113C1407.6 749.268 1407.93 749.528 1408.17 749.863C1408.41 750.197 1408.55 750.593 1408.57 751.003C1408.59 751.414 1408.5 751.822 1408.3 752.182H1408.32Z" fill="url(#paint0_linear_6_1170)"/>
<path d="M1385.15 739.595L1355.54 745.399C1355.3 745.447 1355.09 745.571 1354.93 745.752C1354.78 745.932 1354.68 746.16 1354.67 746.399L1352.84 777.139C1352.83 777.308 1352.86 777.477 1352.93 777.633C1352.99 777.788 1353.09 777.927 1353.22 778.037C1353.35 778.146 1353.5 778.224 1353.67 778.265C1353.83 778.305 1354 778.307 1354.17 778.269L1362.43 776.356C1362.61 776.314 1362.8 776.319 1362.98 776.37C1363.15 776.421 1363.31 776.516 1363.44 776.646C1363.58 776.777 1363.67 776.938 1363.72 777.116C1363.77 777.293 1363.78 777.481 1363.73 777.66L1361.28 789.617C1361.24 789.802 1361.24 789.995 1361.3 790.176C1361.35 790.358 1361.46 790.521 1361.6 790.651C1361.73 790.781 1361.9 790.872 1362.09 790.916C1362.27 790.959 1362.47 790.954 1362.65 790.9L1367.74 789.334C1367.92 789.277 1368.11 789.268 1368.29 789.309C1368.48 789.349 1368.65 789.438 1368.79 789.565C1368.93 789.693 1369.04 789.855 1369.1 790.036C1369.16 790.217 1369.17 790.409 1369.13 790.595L1365.23 809.465C1365 810.639 1366.54 811.269 1367.19 810.269L1367.65 809.595L1391.78 761.465C1391.87 761.281 1391.92 761.075 1391.9 760.869C1391.88 760.663 1391.8 760.466 1391.68 760.301C1391.55 760.137 1391.38 760.012 1391.19 759.941C1391 759.87 1390.78 759.855 1390.58 759.899L1382.1 761.552C1381.92 761.585 1381.74 761.571 1381.56 761.511C1381.39 761.452 1381.23 761.349 1381.1 761.211C1380.98 761.074 1380.89 760.908 1380.85 760.728C1380.81 760.548 1380.81 760.36 1380.87 760.182L1386.39 740.986C1386.6 740.204 1385.95 739.465 1385.15 739.617V739.595Z" fill="url(#paint1_linear_6_1170)"/>
<g clip-path="url(#clip10_6_1170)">
<path d="M1052.66 722.508H1162.23V832.074H1052.66" fill="#181717"/>
<path d="M1124.35 829.292C1121.57 829.292 1120.92 828.008 1120.92 826.724L1121.14 811.744C1121.14 806.608 1119.43 803.184 1117.29 801.472C1129.48 800.188 1142.32 795.48 1142.32 774.509C1142.32 768.517 1140.18 763.595 1136.76 759.743C1137.4 758.459 1139.11 752.895 1136.12 745.405C1136.12 745.405 1131.62 743.907 1121.14 750.969C1112.15 748.401 1102.73 748.401 1093.75 750.969C1083.26 743.907 1078.77 745.405 1078.77 745.405C1075.77 752.895 1077.48 758.459 1078.12 759.743C1074.7 763.595 1072.56 768.517 1072.56 774.509C1072.56 795.48 1085.19 800.188 1097.38 801.472C1095.89 802.97 1094.39 805.324 1093.96 808.962C1090.75 810.246 1082.83 812.6 1078.12 804.254C1078.12 804.254 1075.13 799.118 1069.56 798.69C1069.56 798.69 1064.22 798.69 1069.35 802.114C1069.35 802.114 1072.77 803.612 1075.34 810.032C1075.34 810.032 1078.55 820.732 1093.75 817.308L1093.96 826.724C1093.96 828.008 1093.32 829.292 1090.54 829.292C1087.54 829.292 1087.97 832.93 1087.97 832.93H1126.92C1126.92 832.93 1127.34 829.292 1124.35 829.292Z" fill="white"/>
</g>
</g>
<defs>
<linearGradient id="paint0_linear_6_1170" x1="1322.76" y1="746.421" x2="1372.54" y2="814.03" gradientUnits="userSpaceOnUse">
<stop stop-color="#41D1FF"/>
<stop offset="1" stop-color="#BD34FE"/>
</linearGradient>
<linearGradient id="paint1_linear_6_1170" x1="1363.78" y1="741.16" x2="1372.78" y2="802.943" gradientUnits="userSpaceOnUse">
<stop stop-color="#FFEA83"/>
<stop offset="0.1" stop-color="#FFDD35"/>
<stop offset="1" stop-color="#FFA800"/>
</linearGradient>
<clipPath id="clip0_6_1170">
<rect width="1440" height="1024" rx="16" fill="white"/>
</clipPath>
<clipPath id="clip1_6_1170">
<rect width="109.566" height="109.566" fill="white" transform="translate(1052.66 205.357)"/>
</clipPath>
<clipPath id="clip2_6_1170">
<rect width="103.121" height="109.566" fill="white" transform="translate(21.644 463.933)"/>
</clipPath>
<clipPath id="clip3_6_1170">
<rect width="109.566" height="109.566" fill="white" transform="translate(535.508 463.933)"/>
</clipPath>
<clipPath id="clip4_6_1170">
<rect width="94.4407" height="109.566" fill="white" transform="translate(801.753 463.933)"/>
</clipPath>
<clipPath id="clip5_6_1170">
<rect width="109.566" height="109.566" fill="white" transform="translate(1052.66 463.933)"/>
</clipPath>
<clipPath id="clip6_6_1170">
<rect width="109.566" height="109.566" fill="white" transform="translate(18.3569 722.508)"/>
</clipPath>
<clipPath id="clip7_6_1170">
<rect width="109.342" height="109.566" fill="white" transform="translate(276.932 722.508)"/>
</clipPath>
<clipPath id="clip8_6_1170">
<rect width="140.87" height="54.783" fill="white" transform="translate(520.169 749.899)"/>
</clipPath>
<clipPath id="clip9_6_1170">
<rect width="99.1126" height="109.566" fill="white" transform="translate(799.562 722.508)"/>
</clipPath>
<clipPath id="clip10_6_1170">
<rect width="109.566" height="109.566" fill="white" transform="translate(1052.66 722.508)"/>
</clipPath>
</defs>
</svg>
