<svg width="1440" height="1024" viewBox="0 0 1440 1024" fill="none" xmlns="http://www.w3.org/2000/svg">
<rect width="1440" height="1024" rx="16" fill="#111111"/>
<path d="M483.672 520.672H466.281V509.703H483.672C486.359 509.703 488.547 509.266 490.234 508.391C491.922 507.484 493.156 506.234 493.938 504.641C494.719 503.047 495.109 501.25 495.109 499.25C495.109 497.219 494.719 495.328 493.938 493.578C493.156 491.828 491.922 490.422 490.234 489.359C488.547 488.297 486.359 487.766 483.672 487.766H471.156V545H457.094V476.75H483.672C489.016 476.75 493.594 477.719 497.406 479.656C501.25 481.562 504.188 484.203 506.219 487.578C508.25 490.953 509.266 494.812 509.266 499.156C509.266 503.562 508.25 507.375 506.219 510.594C504.188 513.812 501.25 516.297 497.406 518.047C493.594 519.797 489.016 520.672 483.672 520.672ZM531.625 505.344V545H518.125V494.281H530.828L531.625 505.344ZM546.906 493.953L546.672 506.469C546.016 506.375 545.219 506.297 544.281 506.234C543.375 506.141 542.547 506.094 541.797 506.094C539.891 506.094 538.234 506.344 536.828 506.844C535.453 507.312 534.297 508.016 533.359 508.953C532.453 509.891 531.766 511.031 531.297 512.375C530.859 513.719 530.609 515.25 530.547 516.969L527.828 516.125C527.828 512.844 528.156 509.828 528.812 507.078C529.469 504.297 530.422 501.875 531.672 499.812C532.953 497.75 534.516 496.156 536.359 495.031C538.203 493.906 540.312 493.344 542.688 493.344C543.438 493.344 544.203 493.406 544.984 493.531C545.766 493.625 546.406 493.766 546.906 493.953ZM549.719 520.156V519.172C549.719 515.453 550.25 512.031 551.312 508.906C552.375 505.75 553.922 503.016 555.953 500.703C557.984 498.391 560.484 496.594 563.453 495.312C566.422 494 569.828 493.344 573.672 493.344C577.516 493.344 580.938 494 583.938 495.312C586.938 496.594 589.453 498.391 591.484 500.703C593.547 503.016 595.109 505.75 596.172 508.906C597.234 512.031 597.766 515.453 597.766 519.172V520.156C597.766 523.844 597.234 527.266 596.172 530.422C595.109 533.547 593.547 536.281 591.484 538.625C589.453 540.938 586.953 542.734 583.984 544.016C581.016 545.297 577.609 545.938 573.766 545.938C569.922 545.938 566.5 545.297 563.5 544.016C560.531 542.734 558.016 540.938 555.953 538.625C553.922 536.281 552.375 533.547 551.312 530.422C550.25 527.266 549.719 523.844 549.719 520.156ZM563.219 519.172V520.156C563.219 522.281 563.406 524.266 563.781 526.109C564.156 527.953 564.75 529.578 565.562 530.984C566.406 532.359 567.5 533.438 568.844 534.219C570.188 535 571.828 535.391 573.766 535.391C575.641 535.391 577.25 535 578.594 534.219C579.938 533.438 581.016 532.359 581.828 530.984C582.641 529.578 583.234 527.953 583.609 526.109C584.016 524.266 584.219 522.281 584.219 520.156V519.172C584.219 517.109 584.016 515.172 583.609 513.359C583.234 511.516 582.625 509.891 581.781 508.484C580.969 507.047 579.891 505.922 578.547 505.109C577.203 504.297 575.578 503.891 573.672 503.891C571.766 503.891 570.141 504.297 568.797 505.109C567.484 505.922 566.406 507.047 565.562 508.484C564.75 509.891 564.156 511.516 563.781 513.359C563.406 515.172 563.219 517.109 563.219 519.172ZM619.562 504.781V545H606.016V494.281H618.719L619.562 504.781ZM617.688 517.859H613.938C613.938 514.328 614.359 511.078 615.203 508.109C616.078 505.109 617.344 502.516 619 500.328C620.688 498.109 622.766 496.391 625.234 495.172C627.703 493.953 630.562 493.344 633.812 493.344C636.062 493.344 638.125 493.688 640 494.375C641.875 495.031 643.484 496.078 644.828 497.516C646.203 498.922 647.266 500.766 648.016 503.047C648.766 505.297 649.141 508 649.141 511.156V545H635.641V512.656C635.641 510.344 635.328 508.562 634.703 507.312C634.078 506.062 633.188 505.188 632.031 504.688C630.906 504.188 629.547 503.938 627.953 503.938C626.203 503.938 624.672 504.297 623.359 505.016C622.078 505.734 621.016 506.734 620.172 508.016C619.328 509.266 618.703 510.734 618.297 512.422C617.891 514.109 617.688 515.922 617.688 517.859ZM647.875 516.312L643.047 516.922C643.047 513.609 643.453 510.531 644.266 507.688C645.109 504.844 646.344 502.344 647.969 500.188C649.625 498.031 651.672 496.359 654.109 495.172C656.547 493.953 659.359 493.344 662.547 493.344C664.984 493.344 667.203 493.703 669.203 494.422C671.203 495.109 672.906 496.219 674.312 497.75C675.75 499.25 676.844 501.219 677.594 503.656C678.375 506.094 678.766 509.078 678.766 512.609V545H665.219V512.609C665.219 510.266 664.906 508.484 664.281 507.266C663.688 506.016 662.812 505.156 661.656 504.688C660.531 504.188 659.188 503.938 657.625 503.938C656 503.938 654.578 504.266 653.359 504.922C652.141 505.547 651.125 506.422 650.312 507.547C649.5 508.672 648.891 509.984 648.484 511.484C648.078 512.953 647.875 514.562 647.875 516.312ZM702.719 504.031V564.5H689.219V494.281H701.734L702.719 504.031ZM734.828 519.078V520.062C734.828 523.75 734.391 527.172 733.516 530.328C732.672 533.484 731.422 536.234 729.766 538.578C728.109 540.891 726.047 542.703 723.578 544.016C721.141 545.297 718.328 545.938 715.141 545.938C712.047 545.938 709.359 545.312 707.078 544.062C704.797 542.812 702.875 541.062 701.312 538.812C699.781 536.531 698.547 533.891 697.609 530.891C696.672 527.891 695.953 524.672 695.453 521.234V518.656C695.953 514.969 696.672 511.594 697.609 508.531C698.547 505.438 699.781 502.766 701.312 500.516C702.875 498.234 704.781 496.469 707.031 495.219C709.312 493.969 711.984 493.344 715.047 493.344C718.266 493.344 721.094 493.953 723.531 495.172C726 496.391 728.062 498.141 729.719 500.422C731.406 502.703 732.672 505.422 733.516 508.578C734.391 511.734 734.828 515.234 734.828 519.078ZM721.281 520.062V519.078C721.281 516.922 721.094 514.938 720.719 513.125C720.375 511.281 719.812 509.672 719.031 508.297C718.281 506.922 717.281 505.859 716.031 505.109C714.812 504.328 713.328 503.938 711.578 503.938C709.734 503.938 708.156 504.234 706.844 504.828C705.562 505.422 704.516 506.281 703.703 507.406C702.891 508.531 702.281 509.875 701.875 511.438C701.469 513 701.219 514.766 701.125 516.734V523.25C701.281 525.562 701.719 527.641 702.438 529.484C703.156 531.297 704.266 532.734 705.766 533.797C707.266 534.859 709.234 535.391 711.672 535.391C713.453 535.391 714.953 535 716.172 534.219C717.391 533.406 718.375 532.297 719.125 530.891C719.906 529.484 720.453 527.859 720.766 526.016C721.109 524.172 721.281 522.188 721.281 520.062ZM768.062 494.281V503.844H738.531V494.281H768.062ZM745.844 481.766H759.344V529.719C759.344 531.188 759.531 532.312 759.906 533.094C760.312 533.875 760.906 534.422 761.688 534.734C762.469 535.016 763.453 535.156 764.641 535.156C765.484 535.156 766.234 535.125 766.891 535.062C767.578 534.969 768.156 534.875 768.625 534.781L768.672 544.719C767.516 545.094 766.266 545.391 764.922 545.609C763.578 545.828 762.094 545.938 760.469 545.938C757.5 545.938 754.906 545.453 752.688 544.484C750.5 543.484 748.812 541.891 747.625 539.703C746.438 537.516 745.844 534.641 745.844 531.078V481.766ZM776.594 476.75H802.047C807.266 476.75 811.75 477.531 815.5 479.094C819.281 480.656 822.188 482.969 824.219 486.031C826.25 489.094 827.266 492.859 827.266 497.328C827.266 500.984 826.641 504.125 825.391 506.75C824.172 509.344 822.438 511.516 820.188 513.266C817.969 514.984 815.359 516.359 812.359 517.391L807.906 519.734H785.781L785.688 508.766H802.141C804.609 508.766 806.656 508.328 808.281 507.453C809.906 506.578 811.125 505.359 811.938 503.797C812.781 502.234 813.203 500.422 813.203 498.359C813.203 496.172 812.797 494.281 811.984 492.688C811.172 491.094 809.938 489.875 808.281 489.031C806.625 488.188 804.547 487.766 802.047 487.766H790.656V545H776.594V476.75ZM814.75 545L799.188 514.578L814.047 514.484L829.797 544.344V545H814.75ZM864.625 533.562V510.969C864.625 509.344 864.359 507.953 863.828 506.797C863.297 505.609 862.469 504.688 861.344 504.031C860.25 503.375 858.828 503.047 857.078 503.047C855.578 503.047 854.281 503.312 853.188 503.844C852.094 504.344 851.25 505.078 850.656 506.047C850.062 506.984 849.766 508.094 849.766 509.375H836.266C836.266 507.219 836.766 505.172 837.766 503.234C838.766 501.297 840.219 499.594 842.125 498.125C844.031 496.625 846.297 495.453 848.922 494.609C851.578 493.766 854.547 493.344 857.828 493.344C861.766 493.344 865.266 494 868.328 495.312C871.391 496.625 873.797 498.594 875.547 501.219C877.328 503.844 878.219 507.125 878.219 511.062V532.766C878.219 535.547 878.391 537.828 878.734 539.609C879.078 541.359 879.578 542.891 880.234 544.203V545H866.594C865.938 543.625 865.438 541.906 865.094 539.844C864.781 537.75 864.625 535.656 864.625 533.562ZM866.406 514.109L866.5 521.75H858.953C857.172 521.75 855.625 521.953 854.312 522.359C853 522.766 851.922 523.344 851.078 524.094C850.234 524.812 849.609 525.656 849.203 526.625C848.828 527.594 848.641 528.656 848.641 529.812C848.641 530.969 848.906 532.016 849.438 532.953C849.969 533.859 850.734 534.578 851.734 535.109C852.734 535.609 853.906 535.859 855.25 535.859C857.281 535.859 859.047 535.453 860.547 534.641C862.047 533.828 863.203 532.828 864.016 531.641C864.859 530.453 865.297 529.328 865.328 528.266L868.891 533.984C868.391 535.266 867.703 536.594 866.828 537.969C865.984 539.344 864.906 540.641 863.594 541.859C862.281 543.047 860.703 544.031 858.859 544.812C857.016 545.562 854.828 545.938 852.297 545.938C849.078 545.938 846.156 545.297 843.531 544.016C840.938 542.703 838.875 540.906 837.344 538.625C835.844 536.312 835.094 533.688 835.094 530.75C835.094 528.094 835.594 525.734 836.594 523.672C837.594 521.609 839.062 519.875 841 518.469C842.969 517.031 845.422 515.953 848.359 515.234C851.297 514.484 854.703 514.109 858.578 514.109H866.406ZM901.844 505.109V545H888.344V494.281H901L901.844 505.109ZM899.875 517.859H896.219C896.219 514.109 896.703 510.734 897.672 507.734C898.641 504.703 900 502.125 901.75 500C903.5 497.844 905.578 496.203 907.984 495.078C910.422 493.922 913.141 493.344 916.141 493.344C918.516 493.344 920.688 493.688 922.656 494.375C924.625 495.062 926.312 496.156 927.719 497.656C929.156 499.156 930.25 501.141 931 503.609C931.781 506.078 932.172 509.094 932.172 512.656V545H918.578V512.609C918.578 510.359 918.266 508.609 917.641 507.359C917.016 506.109 916.094 505.234 914.875 504.734C913.688 504.203 912.219 503.938 910.469 503.938C908.656 503.938 907.078 504.297 905.734 505.016C904.422 505.734 903.328 506.734 902.453 508.016C901.609 509.266 900.969 510.734 900.531 512.422C900.094 514.109 899.875 515.922 899.875 517.859ZM955.938 472.953V545H942.438V472.953H955.938ZM987.906 494.281L965.875 519.406L954.062 531.359L949.141 521.609L958.516 509.703L971.688 494.281H987.906ZM973.891 545L958.891 521.562L968.219 513.406L989.453 545H973.891Z" fill="white"/>
</svg>
