<svg width="60" height="60" viewBox="0 0 60 60" fill="none" xmlns="http://www.w3.org/2000/svg">
<g clip-path="url(#clip0_8_18)">
<path d="M60 0H0V60H60V0Z" fill="#009639"/>
<path d="M35.682 42.7656C35.7 42.0096 35.664 41.2176 35.574 40.5552C33.9684 39.9406 32.4165 39.194 30.9341 38.3232C30.4302 38.0352 30.2358 37.9632 29.9982 37.9632C29.7462 37.9632 29.5158 38.0712 29.0839 38.3232C26.1538 40.0152 21.0099 42.0132 17.9718 42.0672C17.9538 41.4372 18.0438 40.8972 18.1158 40.3932C17.5578 40.4292 16.7839 40.4292 16.0496 40.3752C15.9416 40.7892 15.8696 41.4012 15.8696 41.9772C15.8696 43.2012 16.5535 44.1372 18.1374 44.1372C21.1719 44.1372 26.8557 41.9772 30.0018 40.2312C31.8736 41.2752 33.7778 42.1392 35.682 42.7656ZM39.584 36.8868C38.7381 36.7068 37.8202 36.5088 37.2659 36.5088C36.7799 36.5088 36.5099 36.7788 36.5099 37.2648C36.5099 38.0388 37.0319 40.1592 37.0319 42.4992C37.0319 44.0112 36.9239 45.1596 36.7259 45.9156C35.1421 45.6816 33.0183 44.8536 30.9521 43.6296C30.4338 43.3236 30.2178 43.2516 30.0018 43.2516C29.7858 43.2516 29.5698 43.3236 29.0659 43.6116C27.0501 44.7636 24.9119 45.6456 23.3317 45.9156C23.1966 45.4432 23.0944 44.9621 23.0257 44.4756C22.3418 44.7276 21.5678 44.9436 21.0279 45.0516C21.2439 46.974 21.7118 48 23.0977 48C24.5159 48 27.716 46.83 30.0018 45.516C32.284 46.83 35.4841 48 36.7799 48C37.8598 48 38.3638 47.604 38.6661 46.74C39.0261 45.732 39.1521 44.4036 39.1521 42.8376C39.1521 41.6496 39.0081 40.1772 38.7561 38.7228C39.3141 38.8308 39.872 38.9028 40.25 38.9748C40.0838 38.2622 39.8611 37.564 39.584 36.8868ZM42.7661 24.3192C42.0102 24.3012 41.2183 24.3372 40.5559 24.4272C39.9412 26.0317 39.1947 27.5826 38.3242 29.064C38.0362 29.568 37.9642 29.766 37.9642 30C37.9642 30.252 38.0722 30.486 38.3242 30.918C40.016 33.8484 42.0102 38.9892 42.0678 42.0312C41.4379 42.0492 40.8979 41.9592 40.394 41.8872C40.43 42.4452 40.43 43.2192 40.376 43.9536C40.7899 44.0616 41.4019 44.1336 41.9742 44.1336C43.1981 44.1336 44.134 43.4496 44.134 41.8656C44.134 38.8308 41.9742 33.1464 40.232 30C41.2759 28.128 42.1398 26.2236 42.7661 24.3192ZM21.2799 38.7552C21.1719 39.3132 21.0999 39.8712 21.0279 40.2492C21.5858 40.1232 22.4318 39.8712 23.1157 39.5832C23.2957 38.7408 23.4937 37.8192 23.4937 37.2648C23.4937 36.7788 23.2237 36.5088 22.7377 36.5088C21.9638 36.5088 19.8436 37.0308 17.5038 37.0308C15.992 37.0308 14.8437 36.9228 14.0878 36.7248C14.3218 35.1408 15.1497 33.0204 16.3736 30.954C16.6759 30.432 16.7479 30.216 16.7479 30C16.7479 29.784 16.6759 29.568 16.388 29.064C15.2361 27.048 14.3578 24.9096 14.0878 23.3292C14.5601 23.1941 15.0412 23.0919 15.5276 23.0232C15.2757 22.3392 15.0597 21.5652 14.9517 21.0252C13.0259 21.2412 12 21.7092 12 23.0952C12 24.5172 13.1699 27.7176 14.4838 30C13.1699 32.2824 12 35.4864 12 36.7788C12 37.8588 12.396 38.3628 13.2599 38.6688C14.2678 39.0288 15.5996 39.1548 17.1619 39.1548C18.3498 39.1548 19.8256 39.0072 21.2799 38.7552ZM48 23.2248C48 22.1448 47.604 21.6408 46.7401 21.3348C45.7322 20.9748 44.4004 20.8524 42.8381 20.8524C41.6502 20.8524 40.1744 20.9964 38.7201 21.2484C38.8281 20.6904 38.9001 20.1324 38.9721 19.7544C38.2596 19.9205 37.5614 20.1432 36.8843 20.4204C36.7043 21.2628 36.5099 22.1844 36.5099 22.7388C36.5099 23.2248 36.7799 23.4948 37.2659 23.4948C38.0362 23.4948 40.16 22.9728 42.4962 22.9728C44.008 22.9728 45.1599 23.0808 45.9158 23.2788C45.6782 24.8628 44.8539 26.9832 43.63 29.0496C43.3241 29.5716 43.2521 29.7876 43.2521 30.0036C43.2521 30.2196 43.3241 30.4356 43.612 30.9396C44.7639 32.9556 45.6422 35.094 45.9158 36.6744C45.4435 36.8095 44.9624 36.9117 44.476 36.9804C44.7279 37.6644 44.9439 38.4384 45.0519 38.9748C46.9741 38.7588 48 38.2908 48 36.9084C48 35.49 46.8301 32.286 45.5163 30.0036C46.8301 27.7212 48 24.5208 48 23.2248ZM24.3144 17.2344C24.2964 17.9904 24.3324 18.7824 24.4224 19.4448C26.2582 20.1468 27.734 20.9028 29.0623 21.6768C29.5662 21.9648 29.7642 22.0368 29.9982 22.0368C30.2502 22.0368 30.4842 21.9288 30.9161 21.6768C33.8462 19.9848 38.9865 17.9868 42.0246 17.9328C42.0426 18.5628 41.9526 19.1028 41.8806 19.6068C42.4386 19.5708 43.2125 19.5708 43.9504 19.6248C44.0584 19.2108 44.1304 18.5988 44.1304 18.0228C44.1304 16.7988 43.4465 15.8628 41.8626 15.8628C38.8245 15.8628 33.1443 18.0228 29.9982 19.7688C28.1878 18.7466 26.2847 17.898 24.3144 17.2344ZM17.2303 35.6808C17.9862 35.6988 18.7781 35.6628 19.4441 35.5728C20.1424 33.7404 20.8983 32.2644 21.6758 30.936C21.9602 30.432 22.0322 30.234 22.0322 30C22.0322 29.748 21.9242 29.514 21.6722 29.082C19.9804 26.1516 17.9862 21.0108 17.9322 17.9688C18.5621 17.9508 19.1021 18.0408 19.606 18.1128C19.5678 17.4243 19.5738 16.7341 19.624 16.0464C19.099 15.9239 18.5613 15.8635 18.0222 15.8664C16.7983 15.8664 15.8624 16.5504 15.8624 18.1344C15.8624 21.1692 18.0222 26.8536 19.768 30C18.7241 31.872 17.8602 33.7764 17.2303 35.6808ZM20.4124 23.1132C21.2583 23.2932 22.1762 23.4912 22.7341 23.4912C23.2201 23.4912 23.4901 23.2212 23.4901 22.7352C23.4901 21.9612 22.9681 19.8408 22.9681 17.5008C22.9681 15.9888 23.0761 14.8404 23.2741 14.0844C24.8579 14.3184 26.9781 15.1464 29.0443 16.3704C29.5662 16.6764 29.7822 16.7484 29.9982 16.7484C30.2142 16.7484 30.4302 16.6764 30.9341 16.3884C32.9463 15.2364 35.0845 14.3544 36.6683 14.0844C36.7943 14.4984 36.9023 15.0384 36.9743 15.5244C37.6582 15.2724 38.4286 15.0564 38.9685 14.9484C38.7525 13.026 38.2846 12 36.9023 12C35.4805 12 32.2804 13.17 29.9982 14.484C27.716 13.1664 24.5159 12 23.2237 12C22.1438 12 21.6398 12.396 21.3339 13.26C20.9739 14.268 20.8479 15.5964 20.8479 17.1624C20.8479 18.3504 20.9919 19.8228 21.2439 21.2772C20.6859 21.1692 20.128 21.0972 19.7536 21.0252C19.8796 21.5832 20.128 22.4292 20.4124 23.1132Z" fill="white"/>
</g>
<defs>
<clipPath id="clip0_8_18">
<rect width="60" height="60" rx="6" fill="white"/>
</clipPath>
</defs>
</svg>
