<svg width="60" height="60" viewBox="0 0 60 60" fill="none" xmlns="http://www.w3.org/2000/svg">
<g clip-path="url(#clip0_1_103)">
<path d="M60 0H0V60H60V0Z" fill="#276BFF"/>
<path d="M37.8 41H31.8L24.52 31.92V41H19.36V13H24.52V29.8L31.4 21H37.56L29.52 30.88L37.8 41ZM45.7756 40.52C45.109 41.1867 44.309 41.52 43.3756 41.52C42.4423 41.52 41.6423 41.1867 40.9756 40.52C40.309 39.8533 39.9756 39.0533 39.9756 38.12C39.9756 37.1867 40.309 36.3867 40.9756 35.72C41.6423 35.0533 42.4423 34.72 43.3756 34.72C44.309 34.72 45.109 35.0533 45.7756 35.72C46.4423 36.3867 46.7756 37.1867 46.7756 38.12C46.7756 39.0533 46.4423 39.8533 45.7756 40.52Z" fill="white"/>
</g>
<defs>
<clipPath id="clip0_1_103">
<rect width="60" height="60" rx="6" fill="white"/>
</clipPath>
</defs>
</svg>
